# This file uses centimeters as units for non-parametric coordinates.
# UVs by headus UVLayout v2.08.00 2012/05/02 06:40:44

mtllib Terrain_2_Cliff.mtl
g default
v -536.658875 0.000000 289.842590
v -576.315979 0.000000 195.283386
v -604.710083 0.000000 101.650635
v -607.752319 0.000000 50.270924
v -572.120422 0.000000 -111.796371
v -564.649292 0.000000 -225.588257
v -513.500427 0.000000 -323.288330
v -421.548401 0.000000 -387.080719
v -357.180298 0.000000 -397.425446
v -328.445007 0.000000 -389.954224
v -292.238434 0.000000 -387.080719
v -269.824860 0.000000 -397.425446
v -256.031860 0.000000 -422.137787
v -228.445892 0.000000 -452.022461
v -167.526978 0.000000 -466.390167
v -94.539246 0.000000 -472.711853
v 77.298012 0.000000 -461.792572
v 139.366379 0.000000 -448.574158
v 191.664612 0.000000 -460.068359
v 194.538208 0.000000 -475.010773
v 181.319916 0.000000 -491.677246
v 190.515213 0.000000 -508.918396
v 258.905243 0.000000 -508.918396
v 316.375977 0.000000 -519.263123
v 358.329498 0.000000 -521.561951
v 418.098999 0.000000 -487.654297
v 441.087280 0.000000 -439.378967
v 445.110229 0.000000 -399.724213
v 441.087280 0.000000 -363.517731
v 458.903229 0.000000 -343.402985
v 512.925720 0.000000 -359.494781
v 564.649170 0.000000 -360.644165
v 597.982422 0.000000 -317.541199
v 607.752258 0.000000 -257.196991
v 605.552368 0.000000 -167.001785
v 596.752808 0.000000 -37.941856
v 560.821411 0.000000 73.518936
v 519.023560 0.000000 145.381836
v 479.425659 0.000000 226.044250
v 466.959717 0.000000 326.505646
v 446.427429 0.000000 382.969482
v 376.031158 0.000000 477.564392
v 296.101990 0.000000 485.630798
v 211.039841 0.000000 465.831665
v 170.708618 0.000000 476.831238
v 102.512177 0.000000 514.962402
v -3.082307 0.000000 521.562195
v -153.407684 0.000000 510.562622
v -263.401917 0.000000 503.229584
v -307.399719 0.000000 480.497437
v -355.064148 0.000000 425.500488
v -372.663269 0.000000 400.568329
v -374.129578 0.000000 357.303955
v -365.330017 0.000000 330.172058
v -382.195984 0.000000 297.907104
v -431.327454 0.000000 275.908264
v -491.456573 0.000000 288.374268
v -18.407959 0.000000 -478.103912
v 46.361328 0.000000 -474.242126
v 43.874268 0.000000 -452.420929
v 42.401367 0.000000 -416.106262
v -15.676758 0.000000 -456.393890
v -18.399414 0.000000 -423.059357
v -590.001831 46.724628 200.171249
v -541.266724 46.522438 296.222656
v -490.747772 52.175282 296.881012
v -432.036377 54.674454 280.161621
v -386.450104 57.948425 299.679474
v -372.064697 55.374058 330.526459
v -379.446228 54.902485 356.240601
v -377.625305 48.271133 404.821777
v -360.380798 50.920227 431.526062
v -310.795471 56.287506 483.515930
v -264.533875 71.338608 507.380188
v -154.539673 56.491440 517.731506
v -3.082300 48.418022 529.108276
v 103.266800 44.586464 519.490112
v 173.349854 64.581230 483.245361
v 209.907959 76.281059 469.982056
v 293.083496 51.663780 490.535583
v 378.672302 47.693550 483.223999
v 453.973663 53.359543 385.987915
v 470.732819 38.450333 327.637634
v 483.576050 39.070446 227.553497
v 523.174194 48.579857 149.532333
v 566.858521 47.238533 76.914734
v 601.657898 40.521454 -37.564545
v 610.457520 32.807541 -166.624435
v 614.166626 39.056377 -257.574341
v 602.887329 44.263000 -319.805084
v 566.535828 52.288330 -366.303864
v 509.529968 43.909729 -364.777161
v 463.053711 45.993729 -348.685394
v 447.878906 43.724533 -364.649689
v 448.354858 52.093018 -400.033234
v 443.868347 56.291595 -440.460510
v 420.585632 41.715282 -490.389526
v 358.080811 49.419983 -526.286621
v 315.878693 43.081474 -522.495667
v 257.661957 49.896851 -514.388855
v 190.017899 54.478237 -513.145569
v 177.590164 48.845215 -493.915161
v 187.575867 47.379456 -474.762115
v 187.686096 49.661591 -464.046875
v 138.371750 42.774860 -454.790588
v 78.513229 46.974865 -466.653412
v 36.240723 39.024952 -484.491150
v 37.911865 28.892658 -451.104797
v 37.575684 13.445782 -414.761810
v 30.479004 0.000000 -370.050903
v -614.485901 53.483612 101.650635
v -618.034790 58.191223 48.368210
v -582.403076 57.211494 -113.699051
v -582.627380 51.420872 -229.583435
v -518.161377 56.289566 -329.281006
v -424.211884 52.881115 -393.073395
v -357.510132 44.612984 -403.032196
v -328.115173 49.943260 -398.199432
v -293.887421 50.874374 -393.017151
v -272.255249 52.255970 -402.691437
v -263.323242 50.393856 -426.593628
v -231.281403 52.823372 -459.718872
v -173.603073 59.271976 -473.276520
v -95.349411 53.645985 -478.788055
v -10.906006 41.287895 -487.863617
v -9.622070 31.155602 -453.858185
v -14.940186 15.708725 -420.838135
v -27.116943 0.000000 -378.797424
# 150 texture coords
vt 0.102342 0.858672
vt 0.168957 0.856481
vt 0.105365 0.882469
vt 0.056269 0.905947
vt 0.052925 0.859029
vt 0.005704 0.919876
vt 0.020615 0.857999
vt 0.128618 0.974846
vt 0.075210 0.951446
vt 0.077901 0.930463
vt 0.131557 0.931355
vt 0.007699 0.933835
vt 0.163963 0.931293
vt 0.177531 0.991210
vt 0.251852 0.911886
vt 0.345530 0.908062
vt 0.344799 0.971918
vt 0.254942 0.981604
vt 0.186562 0.974057
vt 0.202678 0.914761
vt 0.424614 0.909583
vt 0.418771 0.983166
vt 0.446786 0.912720
vt 0.434816 0.982401
vt 0.477071 0.920550
vt 0.465187 0.991953
vt 0.215535 0.825137
vt 0.316576 0.823968
vt 0.315595 0.898135
vt 0.215725 0.905858
vt 0.182462 0.895638
vt 0.186759 0.823333
vt 0.402862 0.824665
vt 0.402455 0.888490
vt 0.464963 0.824616
vt 0.465012 0.897963
vt 0.566366 0.819374
vt 0.570760 0.881092
vt 0.012593 0.795447
vt 0.010365 0.733624
vt 0.089158 0.728123
vt 0.095306 0.811175
vt 0.147810 0.722952
vt 0.154641 0.799728
vt 0.201238 0.717363
vt 0.205469 0.782581
vt 0.240919 0.718052
vt 0.237951 0.786645
vt 0.323103 0.731382
vt 0.310114 0.795600
vt 0.398936 0.740942
vt 0.392164 0.818397
vt 0.189328 0.653343
vt 0.322593 0.653322
vt 0.323030 0.702331
vt 0.188530 0.711806
vt 0.099082 0.650562
vt 0.094876 0.716298
vt 0.513655 0.651682
vt 0.514294 0.711979
vt 0.006948 0.720036
vt 0.018925 0.643217
vt 0.686509 0.644825
vt 0.691344 0.715192
vt 0.270205 0.556587
vt 0.419686 0.560694
vt 0.419114 0.617784
vt 0.270036 0.614677
vt 0.137482 0.557718
vt 0.140872 0.629929
vt 0.508419 0.560991
vt 0.508583 0.640721
vt 0.015643 0.630172
vt 0.014688 0.559649
vt 0.682467 0.553843
vt 0.689758 0.624524
vt 0.598185 0.436962
vt 0.820746 0.429680
vt 0.824400 0.513713
vt 0.599706 0.509328
vt 0.441905 0.438640
vt 0.441874 0.504845
vt 0.983499 0.424357
vt 0.988279 0.529788
vt 0.326547 0.434551
vt 0.324345 0.530461
vt 0.264867 0.433851
vt 0.266639 0.546682
vt 0.135869 0.435535
vt 0.139527 0.512228
vt 0.012738 0.504074
vt 0.017212 0.433161
vt 0.101374 0.318858
vt 0.208803 0.322277
vt 0.204889 0.398309
vt 0.098551 0.402212
vt 0.020392 0.419536
vt 0.028351 0.314251
vt 0.253877 0.322945
vt 0.251907 0.394882
vt 0.317731 0.319320
vt 0.324196 0.400569
vt 0.359692 0.315492
vt 0.363648 0.397804
vt 0.413465 0.315586
vt 0.413948 0.401463
vt 0.492902 0.319460
vt 0.487375 0.400261
vt 0.583154 0.328062
vt 0.577403 0.405918
vt 0.649825 0.332406
vt 0.652409 0.402061
vt 0.648935 0.112537
vt 0.817293 0.111309
vt 0.822323 0.191575
vt 0.651145 0.198305
vt 0.403856 0.120259
vt 0.406132 0.207580
vt 0.327760 0.119070
vt 0.327346 0.199323
vt 0.183478 0.110583
vt 0.178042 0.182488
vt 0.020000 0.164698
vt 0.032733 0.096377
vt 0.589992 0.725993
vt 0.755324 0.722370
vt 0.758796 0.801016
vt 0.591171 0.809692
vt 0.416195 0.797963
vt 0.427445 0.718492
vt 0.851385 0.715115
vt 0.857221 0.781289
vt 0.503040 0.224053
vt 0.544565 0.228072
vt 0.538013 0.303266
vt 0.500378 0.301652
vt 0.466571 0.222794
vt 0.465448 0.298486
vt 0.604586 0.231309
vt 0.605830 0.310272
vt 0.412952 0.224172
vt 0.414320 0.298927
vt 0.697030 0.228142
vt 0.693646 0.316688
vt 0.370042 0.292876
vt 0.369166 0.226466
vt 0.805135 0.222447
vt 0.808925 0.302092
vt 0.917670 0.216168
vt 0.933324 0.277768
vn 0.675242 0.229757 -0.700899
vn 0.684557 0.230036 -0.691711
vn 0.915696 0.228518 -0.330577
vn 0.916356 0.228628 -0.328666
vn 0.960096 0.213088 -0.181132
vn 0.962058 0.210833 -0.173189
vn 0.972589 0.178760 0.148715
vn 0.971854 0.178745 0.153459
vn 0.968240 0.208868 0.137422
vn 0.968221 0.208720 0.137785
vn 0.931476 0.245143 0.268807
vn 0.933323 0.245582 0.261912
vn 0.721321 0.180338 0.668711
vn 0.717036 0.178863 0.673697
vn 0.432925 0.128135 0.892277
vn 0.442942 0.128181 0.887340
vn 0.044173 0.129600 0.990582
vn 0.043659 0.129633 0.990601
vn -0.159323 0.139085 0.977380
vn -0.157235 0.138991 0.977731
vn 0.105419 0.132213 0.985600
vn 0.107886 0.132123 0.985345
vn 0.705595 0.127717 0.697011
vn 0.716152 0.127903 0.686124
vn 0.794980 0.142593 0.589638
vn 0.796469 0.142411 0.587670
vn 0.436761 0.152113 0.886624
vn 0.415939 0.151564 0.896673
vn 0.139999 0.129160 0.981691
vn 0.146519 0.130322 0.980586
vn 0.090807 0.136858 0.986420
vn 0.090089 0.135395 0.986688
vn -0.011197 0.221866 0.975013
vn 0.107371 0.246519 0.963172
vn -0.271539 0.120926 0.954800
vn -0.268979 0.120927 0.955525
vn -0.014565 0.121550 0.992478
vn -0.016206 0.121559 0.992452
vn 0.405963 0.133666 0.904061
vn 0.399248 0.133253 0.907108
vn 0.946050 0.100114 -0.308168
vn 0.946604 0.100221 -0.306427
vn 0.996073 0.087818 -0.011238
vn 0.993207 0.086203 0.078164
vn 0.236151 0.095116 0.967050
vn 0.202263 0.095061 0.974707
vn 0.078292 0.093964 0.992492
vn 0.072531 0.093871 0.992939
vn 0.121915 0.091345 0.988328
vn 0.121621 0.091319 0.988367
vn -0.295384 0.087550 0.951359
vn -0.290525 0.087610 0.952848
vn -0.714009 0.078573 0.695714
vn -0.721846 0.078261 0.687614
vn -0.957564 0.061973 0.281480
vn -0.959798 0.061769 0.273812
vn -0.996257 0.077524 0.038236
vn -0.996072 0.074841 0.047314
vn -0.962349 0.125172 0.241282
vn -0.962883 0.125050 0.239204
vn -0.044192 0.136935 0.989594
vn -0.001702 0.134389 0.990927
vn 0.149810 0.112332 0.982313
vn 0.155192 0.112252 0.981486
vn -0.438753 0.121674 0.890332
vn -0.433216 0.121737 0.893031
vn -0.902378 0.125070 0.412398
vn -0.895000 0.123846 0.428530
vn -0.986959 0.148504 0.062110
vn -0.986721 0.148111 0.066667
vn -0.988401 0.142258 -0.053169
vn -0.988402 0.142234 -0.053216
vn -0.972187 0.132686 -0.192992
vn -0.971727 0.132660 -0.195317
vn -0.910861 0.131446 -0.391222
vn -0.909060 0.131449 -0.395387
vn -0.872162 0.122078 -0.473740
vn -0.872430 0.121956 -0.473279
vn -0.952066 0.110418 -0.285269
vn -0.950753 0.110522 -0.289575
vn -0.971482 0.116038 -0.206781
vn -0.969708 0.117019 -0.214414
vn -0.845333 0.132165 -0.517634
vn -0.841965 0.132129 -0.523103
vn -0.555221 0.131249 -0.821281
vn -0.551555 0.131155 -0.823763
vn 0.096686 0.090308 -0.991210
vn 0.122521 0.088001 -0.988557
vn 0.059464 0.078407 -0.995146
vn 0.054854 0.078425 -0.995410
vn -0.415955 0.091545 -0.904765
vn -0.401730 0.089254 -0.911398
vn -0.271136 0.119181 -0.955134
vn -0.281174 0.118537 -0.952308
vn 0.019402 0.135713 -0.990558
vn 0.021403 0.135846 -0.990499
vn 0.081084 0.116112 -0.989921
vn 0.081396 0.114358 -0.990099
vn 0.203326 0.083311 -0.975560
vn 0.194520 0.083813 -0.977311
vn 0.612193 0.094661 -0.785021
vn 0.599508 0.092413 -0.795016
vn 0.758584 0.124131 -0.639642
vn 0.755532 0.123199 -0.643423
vn 0.963399 0.120746 -0.239338
vn 0.960204 0.121791 -0.251348
vn 0.989831 0.103514 0.097571
vn 0.988847 0.103713 0.106885
vn 0.985744 0.106919 -0.129914
vn 0.984076 0.106658 -0.142194
vn 0.642764 0.083248 -0.761528
vn 0.631442 0.082552 -0.771016
vn 0.064880 0.097340 -0.993134
vn 0.073519 0.096695 -0.992595
vn -0.147008 0.129918 -0.980566
vn -0.151420 0.129242 -0.979984
vn -0.149024 0.198933 0.968616
vn -0.076482 0.187856 0.979214
vn 0.968914 0.238897 0.064290
vn 0.959040 0.258508 0.115828
vn 0.958575 0.259328 0.117829
vn 0.968736 0.239247 0.065656
vn -0.972091 0.212986 -0.098363
vn -0.979212 0.198080 0.043678
vn -0.979493 0.198960 0.031740
vn -0.971231 0.214414 -0.103620
vn 0.921390 0.306837 0.238521
vn -0.953322 0.236481 -0.187760
s 1
g polySurface1
usemtl pasted__lambert2SG
f 65/123/1 1/124/2 2/121/3 64/122/4
f 64/122/4 2/121/3 3/119/5 111/120/6
f 111/120/6 3/119/5 4/117/7 112/118/8
f 112/118/8 4/117/7 5/113/9 113/116/10
f 113/116/10 5/113/9 6/114/11 114/115/12
f 114/129/12 6/130/11 7/125/13 115/128/14
f 115/128/14 7/125/13 8/126/15 116/127/16
f 116/127/16 8/126/15 9/131/17 117/132/18
f 117/145/18 9/146/17 10/141/19 118/142/20
f 118/142/20 10/141/19 11/137/21 119/138/22
f 119/138/22 11/137/21 12/133/23 120/136/24
f 120/136/24 12/133/23 13/134/25 121/135/26
f 121/135/26 13/134/25 14/139/27 122/140/28
f 122/140/28 14/139/27 15/143/29 123/144/30
f 123/144/30 15/143/29 16/147/31 124/148/32
f 107/19/33 59/20/34 17/15/35 106/18/36
f 106/18/36 17/15/35 18/16/37 105/17/38
f 105/17/38 18/16/37 19/21/39 104/22/40
f 104/22/40 19/21/39 20/23/41 103/24/42
f 103/24/42 20/23/41 21/25/43 102/26/44
f 102/31/44 21/32/43 22/27/45 101/30/46
f 101/30/46 22/27/45 23/28/47 100/29/48
f 100/29/48 23/28/47 24/33/49 99/34/50
f 99/34/50 24/33/49 25/35/51 98/36/52
f 98/36/52 25/35/51 26/37/53 97/38/54
f 97/39/54 26/40/53 27/41/55 96/42/56
f 96/42/56 27/41/55 28/43/57 95/44/58
f 95/44/58 28/43/57 29/45/59 94/46/60
f 94/46/60 29/45/59 30/47/61 93/48/62
f 93/48/62 30/47/61 31/49/63 92/50/64
f 92/50/64 31/49/63 32/51/65 91/52/66
f 91/61/66 32/62/65 33/57/67 90/58/68
f 90/58/68 33/57/67 34/53/69 89/56/70
f 89/56/70 34/53/69 35/54/71 88/55/72
f 88/55/72 35/54/71 36/59/73 87/60/74
f 87/60/74 36/59/73 37/63/75 86/64/76
f 86/73/76 37/74/75 38/69/77 85/70/78
f 85/70/78 38/69/77 39/65/79 84/68/80
f 84/68/80 39/65/79 40/66/81 83/67/82
f 83/67/82 40/66/81 41/71/83 82/72/84
f 82/72/84 41/71/83 42/75/85 81/76/86
f 81/91/86 42/92/85 43/89/87 80/90/88
f 80/90/88 43/89/87 44/87/89 79/88/90
f 79/88/90 44/87/89 45/85/91 78/86/92
f 78/86/92 45/85/91 46/81/93 77/82/94
f 77/82/94 46/81/93 47/77/95 76/80/96
f 76/80/96 47/77/95 48/78/97 75/79/98
f 75/79/98 48/78/97 49/83/99 74/84/100
f 74/97/100 49/98/99 50/93/101 73/96/102
f 73/96/102 50/93/101 51/94/103 72/95/104
f 72/95/104 51/94/103 52/99/105 71/100/106
f 71/100/106 52/99/105 53/101/107 70/102/108
f 70/102/108 53/101/107 54/103/109 69/104/110
f 69/104/110 54/103/109 55/105/111 68/106/112
f 68/106/112 55/105/111 56/107/113 67/108/114
f 67/108/114 56/107/113 57/109/115 66/110/116
f 66/110/116 57/109/115 1/111/2 65/112/1
f 124/148/32 16/147/31 58/149/117 125/150/118
f 108/8/119 109/9/120 61/10/121 60/11/122
f 127/3/123 126/4/124 62/5/125 63/1/126
f 125/6/118 58/7/117 62/5/125 126/4/124
f 59/13/34 107/14/33 108/8/119 60/11/122
f 61/10/121 109/9/120 110/12/127
f 127/3/123 63/1/126 128/2/128
