# This file uses centimeters as units for non-parametric coordinates.

mtllib Rocks.mtl
g default
v 656.637085 15.867263 147.787582
v 694.403809 15.867263 153.285172
v 660.718140 15.867263 120.472069
v 682.531677 17.720684 116.531624
v 698.060364 15.215566 125.627441
v 673.090027 16.673674 157.722992
v 642.847900 -47.999996 155.485367
v 704.665222 -47.999996 164.420303
v 648.854736 -47.999996 116.413460
v 684.445923 -47.999996 109.754166
v 708.834656 -47.999996 121.252586
v 673.284485 -47.999996 168.824783
vt 0.228561 0.928623
vt 0.110194 0.927594
vt 0.136012 0.872376
vt 0.213746 0.880007
vt 0.126499 0.978931
vt 0.203546 0.985670
vt 0.911046 0.985391
vt 0.850840 0.975834
vt 0.880398 0.794491
vt 0.967650 0.810517
vt 0.336758 0.967296
vt 0.259553 0.979358
vt 0.208693 0.802714
vt 0.329182 0.787460
vt 0.386465 0.977730
vt 0.404384 0.793503
vt 0.448650 0.981513
vt 0.504734 0.808075
vt 0.797493 0.969915
vt 0.721680 0.985274
vt 0.679335 0.807979
vt 0.787832 0.785944
vn 0.089031 0.414253 -0.905797
vn -0.131884 0.445785 0.885371
vn 0.729057 0.401864 0.554059
vn 0.867945 0.380419 -0.319300
vn -0.837752 0.426189 0.341371
vn -0.674717 0.372939 -0.636925
vn -0.135668 0.187316 0.972886
vn 0.773192 0.214781 0.596694
vn 0.930317 0.178626 -0.320316
vn 0.104943 0.113208 -0.988014
vn -0.758066 0.181136 -0.626519
vn -0.900862 0.224689 0.371434
s 1
g Rock_0_Mesh
usemtl lambert2SG
f 4/1/1 6/2/2 2/3/3 5/4/4
f 1/5/5 6/2/2 4/1/1 3/6/6
f 2/7/3 6/8/2 12/9/7 8/10/8
f 5/11/4 2/12/3 8/13/8 11/14/9
f 4/15/1 5/11/4 11/14/9 10/16/10
f 3/17/6 4/15/1 10/16/10 9/18/11
f 1/19/5 3/20/6 9/21/11 7/22/12
f 6/8/2 1/19/5 7/22/12 12/9/7
g default
v 720.805725 19.403599 90.462486
v 743.018921 19.403599 55.101707
v 700.920593 19.403599 77.915169
v 706.338684 21.257021 60.550163
v 720.890442 18.751902 46.878017
v 743.874695 20.210009 73.609695
v 722.115112 -47.999996 104.564056
v 750.291382 -47.999996 48.434471
v 691.707947 -47.999996 83.412399
v 695.085876 -47.999996 55.213764
v 720.135742 -47.999996 35.241524
v 752.535339 -47.999996 82.768600
vt 0.121672 0.828067
vt 0.011653 0.811069
vt 0.037978 0.766353
vt 0.103548 0.774740
vt 0.046469 0.883119
vt 0.112124 0.878351
vt 0.470344 0.214187
vt 0.419929 0.226693
vt 0.355496 0.043429
vt 0.449976 0.024503
vt 0.536314 0.209696
vt 0.542009 0.020020
vt 0.590703 0.224372
vt 0.630965 0.031499
vt 0.641209 0.231107
vt 0.707655 0.051957
vt 0.121178 0.439289
vt 0.055660 0.445752
vt 0.023343 0.257367
vt 0.126481 0.246475
vt 0.200197 0.452107
vt 0.230372 0.260203
vn -0.761196 0.451597 -0.465448
vn 0.821289 0.373584 0.431183
vn 0.760226 0.337681 -0.555003
vn -0.137185 0.349480 -0.926846
vn 0.042987 0.385924 0.921529
vn -0.825362 0.382717 0.415097
vn 0.852477 0.172687 0.493420
vn 0.789254 0.152872 -0.594734
vn -0.127484 0.170589 -0.977061
vn -0.843825 0.157153 -0.513091
vn -0.869622 0.176846 0.460958
vn 0.054098 0.200913 0.978114
s 1
g Rock_1_Mesh
usemtl lambert2SG
f 16/23/13 18/24/14 14/25/15 17/26/16
f 13/27/17 18/24/14 16/23/13 15/28/18
f 14/29/15 18/30/14 24/31/19 20/32/20
f 17/33/16 14/29/15 20/32/20 23/34/21
f 16/35/13 17/33/16 23/34/21 22/36/22
f 15/37/18 16/35/13 22/36/22 21/38/23
f 13/39/17 15/40/18 21/41/23 19/42/24
f 18/43/14 13/39/17 19/42/24 24/44/19
g default
v 661.367798 31.663092 44.332924
v 671.054626 31.663092 12.377365
v 640.962097 31.663092 41.917130
v 640.773926 33.516514 23.478409
v 645.706909 31.011395 9.000593
v 676.441833 32.469501 26.320972
v 663.574280 -47.999996 55.682827
v 678.812927 -47.999996 1.716157
v 626.117493 0.000000 55.682827
v 630.850464 2.832107 20.172474
v 637.184998 -47.999996 -1.962981
v 690.407898 -47.999996 28.081408
vt 0.615493 0.715185
vt 0.515381 0.720183
vt 0.531508 0.681534
vt 0.602697 0.673755
vt 0.555992 0.771961
vt 0.613314 0.767028
vt 0.910224 0.258094
vt 0.868627 0.252868
vt 0.890641 0.025159
vt 0.969922 0.039980
vt 0.342162 0.315863
vt 0.271201 0.325742
vt 0.228326 0.103716
vt 0.344678 0.091320
vt 0.382770 0.327805
vt 0.396593 0.238404
vt 0.433691 0.336593
vt 0.496219 0.252065
vt 0.802878 0.250376
vt 0.747643 0.258597
vt 0.692476 0.170052
vt 0.782882 0.026050
vn -0.724497 0.640499 -0.254687
vn 0.910684 0.315672 0.266471
vn 0.479059 0.285468 -0.830067
vn -0.165578 0.292883 -0.941702
vn 0.488633 0.320572 0.811462
vn -0.287352 0.533951 0.795189
vn 0.948934 0.159753 0.272036
vn 0.486099 0.158860 -0.859343
vn 0.028426 0.145698 -0.988921
vn -0.880758 0.270504 -0.388707
vn -0.113303 0.295913 0.948471
vn 0.610837 0.153341 0.776765
s 1
g Rock_2_Mesh
usemtl lambert2SG
f 28/45/25 30/46/26 26/47/27 29/48/28
f 25/49/29 30/46/26 28/45/25 27/50/30
f 26/51/27 30/52/26 36/53/31 32/54/32
f 29/55/28 26/56/27 32/57/32 35/58/33
f 28/59/25 29/55/28 35/58/33 34/60/34
f 27/61/30 28/59/25 34/60/34 33/62/35
f 25/63/29 27/64/30 33/65/35 31/66/36
f 30/52/26 25/63/29 31/66/36 36/53/31
g default
v 533.458557 19.403599 -493.729034
v 545.766541 19.403599 -538.752808
v 511.936462 19.403599 -504.262634
v 511.357147 21.257021 -523.440186
v 521.939880 18.751902 -536.875244
v 555.457764 20.210009 -517.006775
v 535.582520 -47.999996 -478.879303
v 554.469177 -47.999996 -548.791687
v 504.208801 -47.999996 -496.713013
v 505.383606 -47.999996 -523.543579
v 523.188782 -47.999996 -548.991699
v 566.092285 -47.999996 -510.075836
vt 0.650629 0.894086
vt 0.527161 0.875735
vt 0.570588 0.825184
vt 0.633062 0.849078
vt 0.567258 0.955980
vt 0.633473 0.945241
vt 0.384103 0.765749
vt 0.317621 0.766497
vt 0.291562 0.573985
vt 0.404647 0.574501
vt 0.449379 0.780308
vt 0.489838 0.594663
vt 0.401147 0.553461
vt 0.352971 0.549193
vt 0.313477 0.363321
vt 0.400316 0.358796
vt 0.454830 0.548313
vt 0.475476 0.358267
vt 0.521025 0.559112
vt 0.575350 0.373526
vt 0.228809 0.779258
vt 0.171120 0.594675
vn -0.853991 0.432377 -0.289396
vn 0.902446 0.368649 0.222912
vn 0.562901 0.362866 -0.742611
vn -0.433214 0.358627 -0.826869
vn 0.224516 0.405874 0.885923
vn -0.748133 0.421131 0.512783
vn 0.942172 0.187695 0.277638
vn 0.605037 0.184015 -0.774641
vn -0.408982 0.139393 -0.901834
vn -0.943995 0.094668 -0.316089
vn -0.800518 0.158452 0.577982
vn 0.235997 0.211646 0.948426
s 1
g Rock_3_Mesh
usemtl lambert2SG
f 40/67/37 42/68/38 38/69/39 41/70/40
f 37/71/41 42/68/38 40/67/37 39/72/42
f 38/73/39 42/74/38 48/75/43 44/76/44
f 41/77/40 38/73/39 44/76/44 47/78/45
f 40/79/37 41/80/40 47/81/45 46/82/46
f 39/83/42 40/79/37 46/82/46 45/84/47
f 37/85/41 39/83/42 45/84/47 43/86/48
f 42/74/38 37/87/41 43/88/48 48/75/43
g default
v 609.500793 34.556137 -567.677979
v 608.855347 34.556137 -621.493469
v 570.172852 34.556137 -571.754272
v 569.969360 36.409557 -597.282104
v 578.093262 33.904442 -624.435303
v 618.932617 35.362545 -597.363220
v 613.399719 -47.999996 -553.287476
v 613.307983 -47.999996 -633.237122
v 566.718201 -47.999996 -559.932312
v 554.417908 -47.999996 -593.928711
v 571.468201 -47.999996 -630.976624
v 635.512695 -47.999996 -595.482483
vt 0.115015 0.215797
vt 0.103742 0.079113
vt 0.173483 0.101485
vt 0.189138 0.186601
vt 0.023072 0.112332
vt 0.043546 0.221140
vt 0.764478 0.772142
vt 0.692665 0.785462
vt 0.633555 0.554900
vt 0.754983 0.538562
vt 0.850732 0.770489
vt 0.872095 0.540719
vt 0.927991 0.789069
vt 0.985203 0.555490
vt 0.716662 0.511262
vt 0.648551 0.528944
vt 0.611392 0.291667
vt 0.710777 0.277779
vt 0.827404 0.511493
vt 0.842826 0.277145
vt 0.911602 0.532630
vt 0.973446 0.302883
vn -0.871331 0.480684 -0.098614
vn 0.904925 0.425397 -0.012181
vn 0.489688 0.366400 -0.791174
vn -0.512077 0.340658 -0.788498
vn 0.442689 0.390228 0.807309
vn -0.557804 0.387881 0.733760
vn 0.987024 0.160558 0.002096
vn 0.502423 0.144298 -0.852496
vn -0.548100 0.145039 -0.823742
vn -0.986439 0.135304 -0.092907
vn -0.555085 0.175141 0.813146
vn 0.440670 0.189491 0.877441
s 1
g Rock_4_Mesh
usemtl lambert2SG
f 52/89/49 54/90/50 50/91/51 53/92/52
f 49/93/53 54/90/50 52/89/49 51/94/54
f 50/95/51 54/96/50 60/97/55 56/98/56
f 53/99/52 50/95/51 56/98/56 59/100/57
f 52/101/49 53/99/52 59/100/57 58/102/58
f 51/103/54 52/104/49 58/105/58 57/106/59
f 49/107/53 51/103/54 57/106/59 55/108/60
f 54/109/50 49/107/53 55/108/60 60/110/55
g default
v 605.074463 50.506485 144.190506
v 607.828369 50.506485 120.014824
v 604.101563 80.327591 141.184708
v 605.811523 82.337532 131.200806
v 607.139404 82.519745 123.280075
v 607.691650 80.327591 119.708878
v 607.849365 70.914230 117.618858
v 607.743896 66.046783 117.655922
v 604.162354 61.758774 147.276230
v 603.725342 70.914230 147.396515
v 610.579590 70.939781 144.060730
v 611.819458 62.549240 143.852615
v 613.401001 54.563877 141.247574
v 610.500366 78.995621 139.207230
v 613.956787 53.299854 121.941879
v 611.030945 80.866234 131.206421
v 612.670715 62.923031 120.219444
v 611.557373 81.144157 124.849129
v 611.885254 73.955269 120.223595
v 611.964539 79.327248 121.967003
v 616.438538 71.010338 126.270065
v 620.066467 59.986885 125.897934
v 615.188782 70.200546 135.056671
v 618.746826 59.267288 138.101410
v 600.803772 79.041206 141.262115
v 599.207520 71.904350 146.393951
v 594.502258 54.838951 143.138779
v 596.001953 63.279686 146.071991
v 602.492432 80.723480 132.705811
v 596.094360 54.825359 123.639374
v 603.559753 80.896500 126.055641
v 602.979065 79.015694 122.879280
v 601.654724 73.442574 121.027962
v 599.819641 63.377361 121.313263
v 598.932556 74.837425 125.545647
v 596.493774 75.467133 130.354080
v 595.145569 66.523773 129.334290
v 595.487976 74.306313 137.258438
v 593.663635 65.153740 137.107330
v 598.172180 64.668816 125.197227
vt 0.114495 0.551408
vt 0.104911 0.583779
vt 0.081643 0.582155
vt 0.089820 0.555180
vt 0.043992 0.571316
vt 0.036313 0.540038
vt 0.058864 0.539952
vt 0.063143 0.563393
vt 0.046406 0.500696
vt 0.064536 0.516632
vt 0.071172 0.596759
vt 0.121051 0.486548
vt 0.115734 0.501929
vt 0.104816 0.598593
vt 0.147648 0.529832
vt 0.149081 0.549164
vt 0.135625 0.557761
vt 0.131453 0.525807
vt 0.141705 0.579537
vt 0.129989 0.573276
vt 0.130418 0.590824
vt 0.122975 0.580189
vt 0.107909 0.523466
vt 0.078372 0.527311
vt 0.164105 0.707630
vt 0.139114 0.735129
vt 0.136920 0.726620
vt 0.151874 0.705619
vt 0.151952 0.635910
vt 0.169950 0.674562
vt 0.149031 0.681534
vt 0.141088 0.661437
vt 0.106873 0.743574
vt 0.111575 0.734180
vt 0.073025 0.633068
vt 0.092085 0.658598
vt 0.081095 0.741425
vt 0.068372 0.733396
vt 0.082298 0.725470
vt 0.091068 0.733122
vt 0.056638 0.704316
vt 0.077203 0.708838
vt 0.054776 0.683723
vt 0.079220 0.679779
vt 0.092064 0.712511
vt 0.106250 0.713136
vt 0.124515 0.709872
vt 0.124487 0.686491
vt 0.090135 0.684855
vt 0.103671 0.689871
vn 0.932219 0.311694 -0.183885
vn 0.701850 0.691851 0.169552
vn 0.641190 0.623175 0.447804
vn 0.901464 0.340020 0.267859
vn 0.165668 0.236527 0.957397
vn 0.110576 -0.159580 0.980973
vn 0.607718 0.039495 0.793170
vn 0.602129 0.286205 0.745337
vn -0.055470 -0.946142 0.318966
vn 0.571104 -0.749538 0.334713
vn 0.127629 0.784445 0.606924
vn -0.054326 -0.914970 -0.399848
vn 0.589124 -0.768883 -0.248501
vn 0.013893 0.992620 0.120465
vn -0.091155 -0.060539 -0.993995
vn -0.068221 0.109213 -0.991675
vn 0.677088 0.190625 -0.710784
vn 0.566043 0.006967 -0.824346
vn -0.089186 0.465624 -0.880477
vn 0.719379 0.383667 -0.579046
vn -0.040912 0.973691 -0.224169
vn 0.680671 0.722957 -0.118405
vn 0.969008 -0.211078 -0.128333
vn 0.935849 -0.240546 0.257536
vn -0.514957 0.753749 0.408267
vn -0.605274 0.298953 0.737747
vn -0.605871 -0.018479 0.795348
vn -0.633753 -0.737762 0.232518
vn -0.584839 0.810698 -0.027059
vn -0.620908 -0.715605 -0.319972
vn -0.622502 0.439957 -0.647248
vn -0.617141 0.750359 -0.236853
vn -0.644465 0.185819 -0.741712
vn -0.497516 -0.045905 -0.866239
vn -0.821863 0.362353 -0.439592
vn -0.855819 0.471562 -0.212612
vn -0.897962 0.421754 0.125649
vn -0.998585 0.049012 0.020631
vn -0.828898 0.164807 -0.534571
vn -0.972943 0.031038 -0.228952
s 1
g Cave_Rock_Mesh
usemtl lambert2SG
f 81/111/61 76/112/62 74/113/63 83/114/64
f 70/115/65 69/116/66 72/117/67 71/118/68
f 69/116/66 61/119/69 73/120/70 72/117/67
f 63/121/71 70/115/65 71/118/68 74/113/63
f 61/119/69 62/122/72 75/123/73 73/120/70
f 64/124/74 63/121/71 74/113/63 76/112/62
f 68/125/75 67/126/76 79/127/77 77/128/78
f 67/126/76 66/129/79 80/130/80 79/127/77
f 66/129/79 65/131/81 78/132/82 80/130/80
f 62/122/72 68/125/75 77/128/78 75/123/73
f 65/131/81 64/124/74 76/112/62 78/132/82
f 73/120/70 75/123/73 82/133/83 84/134/84
f 77/128/78 82/133/83 75/123/73
f 79/127/77 81/111/61 82/133/83 77/128/78
f 83/114/64 84/134/84 82/133/83 81/111/61
f 81/111/61 79/127/77 80/130/80 78/132/82
f 83/114/64 74/113/63 71/118/68
f 71/118/68 72/117/67 84/134/84 83/114/64
f 73/120/70 84/134/84 72/117/67
f 81/111/61 78/132/82 76/112/62
f 70/135/65 63/136/71 85/137/85 86/138/86
f 61/139/69 69/140/66 88/141/87 87/142/88
f 69/140/66 70/135/65 86/138/86 88/141/87
f 63/136/71 64/143/74 89/144/89 85/137/85
f 62/145/72 61/139/69 87/142/88 90/146/90
f 65/147/81 66/148/79 92/149/91 91/150/92
f 66/148/79 67/151/76 93/152/93 92/149/91
f 67/151/76 68/153/75 94/154/94 93/152/93
f 64/143/74 65/147/81 91/150/92 89/144/89
f 68/153/75 62/145/72 90/146/90 94/154/94
f 89/144/89 91/150/92 95/155/95 96/156/96
f 98/157/97 99/158/98 88/141/87 86/138/86
f 85/137/85 98/157/97 86/138/86
f 88/141/87 99/158/98 87/142/88
f 91/150/92 92/149/91 93/152/93 95/155/95
f 95/155/95 100/159/99 97/160/100 96/156/96
f 90/146/90 97/160/100 100/159/99
f 85/137/85 89/144/89 96/156/96 98/157/97
f 96/156/96 97/160/100 99/158/98 98/157/97
f 87/142/88 99/158/98 97/160/100 90/146/90
f 94/154/94 100/159/99 95/155/95 93/152/93
f 90/146/90 100/159/99 94/154/94
