# This file uses centimeters as units for non-parametric coordinates.
# UVs by headus UVLayout v2.08.00 2012/05/02 06:40:44

mtllib Screw.mtl
g default
v 0.596466 51.358921 -6.220055
v -3.995148 51.358921 -4.814095
v -6.242432 51.358921 -0.588104
v -4.829010 51.358921 3.982399
v -0.582855 51.358921 6.220055
v 4.008759 51.358921 4.814095
v 6.256042 51.358921 0.588097
v 4.842651 51.358921 -3.982399
v 0.582825 57.500744 -6.220055
v -4.008789 57.500744 -4.814095
v -6.256073 57.500744 -0.588104
v -4.842682 57.500744 3.982399
v -0.596497 57.500744 6.220055
v 3.995117 57.500744 4.814095
v 6.242401 57.500744 0.588097
v 4.828979 57.500744 -3.982399
v 0.347778 50.031185 -3.626869
v -2.329559 50.031185 -2.807068
v -3.639923 50.031185 -0.342918
v -2.815765 50.031185 2.322113
v -0.339874 50.031185 3.626869
v 2.337463 50.031185 2.807068
v 3.647858 50.031185 0.342918
v 2.823700 50.031185 -2.322113
v 0.339844 58.828480 -3.626869
v -2.337494 58.828480 -2.807068
v -3.647888 58.828480 -0.342918
v -2.823730 58.828480 2.322113
v -0.347809 58.828480 3.626869
v 2.329529 58.828480 2.807068
v 3.639893 58.828480 0.342918
v 2.815735 58.828480 -2.322113
# 64 texture coords
vt 1.094982 0.072485
vt 1.107447 0.072475
vt 1.107446 0.111656
vt 1.094981 0.111666
vt 1.119871 0.072473
vt 1.119870 0.111654
vt 1.082511 0.072496
vt 1.082510 0.111677
vt 1.070081 0.072500
vt 1.070080 0.111681
vt 1.057656 0.072497
vt 1.057656 0.111678
vt 1.045192 0.072487
vt 1.045191 0.111668
vt 1.032720 0.072476
vt 1.032720 0.111657
vt 1.020290 0.072471
vt 1.020291 0.111652
vt 1.087074 0.012523
vt 1.109281 0.012781
vt 1.104197 0.024618
vt 1.091915 0.024488
vt 1.124796 0.028716
vt 1.112809 0.033378
vt 1.071276 0.028015
vt 1.083175 0.033062
vt 1.112750 0.045586
vt 1.071142 0.050147
vt 1.083104 0.045313
vt 1.152141 0.028763
vt 1.124709 0.050491
vt 1.108965 0.066108
vt 1.104033 0.054165
vt 1.086754 0.065940
vt 1.091745 0.054057
vt 1.164081 0.033502
vt 1.164074 0.045710
vt 1.152109 0.050539
vt 1.152062 0.071892
vt 1.124708 0.071843
vt 1.167741 0.012912
vt 1.172739 0.024789
vt 1.167769 0.066241
vt 1.172745 0.054336
vt 1.152066 0.093312
vt 1.124712 0.093264
vt 1.189950 0.012775
vt 1.185022 0.024724
vt 1.189980 0.066192
vt 1.185032 0.054294
vt 1.152074 0.114740
vt 1.124720 0.114691
vt 1.205663 0.028352
vt 1.193716 0.033346
vt 1.205678 0.050485
vt 1.193721 0.045598
vt 1.152058 0.136092
vt 1.124704 0.136044
vt 1.152005 0.157427
vt 1.124651 0.157379
vt 1.151926 0.178820
vt 1.124572 0.178774
vt 1.151846 0.200212
vt 1.124492 0.200168
vn 0.091810 -0.224804 -0.970069
vn -0.619044 -0.226100 -0.752106
vn -0.619920 0.224207 -0.751951
vn 0.090812 0.225083 -0.970098
vn -0.969564 -0.226921 -0.091939
vn -0.970257 0.223953 -0.091910
vn -0.748910 -0.226374 0.622807
vn -0.749729 0.224080 0.622652
vn -0.090812 -0.225084 0.970098
vn -0.091810 0.224804 0.970069
vn 0.619920 -0.224207 0.751951
vn 0.619045 0.226100 0.752106
vn 0.970257 -0.223953 0.091909
vn 0.969564 0.226921 0.091939
vn 0.749728 -0.224080 -0.622652
vn 0.748909 0.226374 -0.622808
vn -0.078728 -0.547580 0.833041
vn 0.531823 -0.547778 0.645836
vn 0.832201 -0.548833 0.078887
vn 0.643255 -0.547997 -0.534717
vn 0.078144 -0.547342 -0.833253
vn -0.531517 -0.549376 -0.644729
vn -0.830567 -0.551333 -0.078673
vn -0.642526 -0.549933 0.533605
vn 0.531517 0.549375 0.644730
vn -0.078144 0.547342 0.833253
vn 0.830567 0.551334 0.078673
vn 0.642525 0.549933 -0.533605
vn 0.078728 0.547581 -0.833041
vn -0.531823 0.547778 -0.645836
vn -0.832201 0.548833 -0.078887
vn -0.643256 0.547996 0.534717
s 1
g pCylinder37
usemtl initialShadingGroup
f 1/61/1 2/63/2 10/64/3 9/62/4
f 2/30/2 3/38/5 11/31/6 10/23/3
f 3/38/5 4/39/7 12/40/8 11/31/6
f 4/39/7 5/45/9 13/46/10 12/40/8
f 5/45/9 6/51/11 14/52/12 13/46/10
f 6/51/11 7/57/13 15/58/14 14/52/12
f 7/57/13 8/59/15 16/60/16 15/58/14
f 8/59/15 1/61/1 9/62/4 16/60/16
f 2/30/2 1/41/1 17/42/17 18/36/18
f 3/38/5 2/30/2 18/36/18 19/37/19
f 4/43/7 3/38/5 19/37/19 20/44/20
f 5/49/9 4/43/7 20/44/20 21/50/21
f 6/55/11 5/49/9 21/50/21 22/56/22
f 7/53/13 6/55/11 22/56/22 23/54/23
f 8/47/15 7/53/13 23/54/23 24/48/24
f 1/41/1 8/47/15 24/48/24 17/42/17
f 9/20/4 10/23/3 26/24/25 25/21/26
f 10/23/3 11/31/6 27/27/27 26/24/25
f 11/31/6 12/32/8 28/33/28 27/27/27
f 12/32/8 13/34/10 29/35/29 28/33/28
f 13/34/10 14/28/12 30/29/30 29/35/29
f 14/28/12 15/25/14 31/26/31 30/29/30
f 15/25/14 16/19/16 32/22/32 31/26/31
f 16/19/16 9/20/4 25/21/26 32/22/32
f 18/7/18 17/1/17 25/4/26 26/8/25
f 19/9/19 18/7/18 26/8/25 27/10/27
f 20/11/20 19/9/19 27/10/27 28/12/28
f 21/13/21 20/11/20 28/12/28 29/14/29
f 22/15/22 21/13/21 29/14/29 30/16/30
f 23/17/23 22/15/22 30/16/30 31/18/31
f 24/2/24 23/5/23 31/6/31 32/3/32
f 17/1/17 24/2/24 32/3/32 25/4/26
