# This file uses centimeters as units for non-parametric coordinates.
# UVs by headus UVLayout v2.08.00 2012/05/02 06:40:44

mtllib Bridge_Wood.mtl
g default
v -365.949127 -4.179057 -33.877251
v -374.382294 28.651217 -1.840661
v -367.685120 -7.230606 -27.243088
v -376.106293 22.348089 3.082900
v -369.087769 -4.095400 -34.832951
v -377.520874 28.734871 -2.796360
v -370.823700 -7.146952 -28.198793
v -379.244873 22.431747 2.127195
v -370.760712 12.659532 -16.343376
v -373.899353 12.743186 -17.299074
v -375.628632 7.651477 -12.168932
v -372.490082 7.567822 -11.213226
v -316.083191 33.536980 -3.637373
v -313.206543 49.164600 43.453323
v -316.555908 26.839672 -1.102564
v -313.686371 42.145451 45.344261
v -319.352020 33.806210 -3.521434
v -316.475372 49.433842 43.569263
v -319.824738 27.108910 -0.986618
v -316.955200 42.414692 45.460209
v -314.416016 44.242966 27.651360
v -317.684845 44.512199 27.767296
v -318.162231 37.893902 29.591349
v -314.893372 37.624664 29.475405
v -315.306152 35.528072 3.530864
v -318.574982 35.797302 3.646802
v -319.048981 29.718719 7.612057
v -315.780151 29.449482 7.496112
v -375.551422 41.260506 -0.336967
v -374.309875 24.485250 45.553524
v -375.414276 34.719177 -2.776985
v -374.404846 17.478134 43.890137
v -377.808167 41.250164 -0.537844
v -377.590881 24.474445 45.632763
v -377.671051 34.708828 -2.977864
v -377.685852 17.467329 43.969368
v -374.417511 29.573248 29.811584
v -377.698486 29.562443 29.890821
v -377.784149 23.187235 27.064554
v -374.503143 23.198044 26.985325
v -375.164581 35.951706 14.107617
v -378.317444 35.940903 14.186852
v -378.394470 30.569271 11.278105
v -375.241608 30.580076 11.198872
v -370.190125 61.609612 -24.575428
v -337.381256 55.621628 -29.832531
v -370.682159 64.300949 -25.460625
v -336.873108 58.207230 -30.983780
v -372.223969 61.420513 -33.807789
v -338.854370 55.282696 -38.718399
v -371.731934 58.729176 -32.922615
v -339.362488 52.697083 -37.567177
v -357.245789 60.748150 -36.140968
v -357.615295 58.126518 -35.018715
v -355.561157 61.069252 -27.718040
v -355.191620 63.690884 -28.840275
v -332.574677 51.873466 -39.822739
v -330.215881 54.669399 -31.833031
v -332.404205 54.550041 -40.859924
v -330.045380 57.345970 -32.870247
v -373.236511 63.202976 -109.312309
v -335.962708 49.305225 -106.775650
v -372.218567 65.889900 -109.426994
v -334.944763 51.992149 -106.890335
v -371.929565 65.683472 -118.219711
v -334.825470 51.746685 -114.673363
v -372.947510 62.996544 -118.105026
v -335.843384 49.059761 -114.558670
v -354.418396 62.522469 -116.571609
v -355.436340 59.835545 -116.456924
v -355.844391 60.059532 -108.451294
v -354.826447 62.746460 -108.565987
v -372.814819 62.449898 -118.362579
v -333.417175 61.427147 -115.429947
v -372.814819 65.325470 -118.362579
v -333.730316 64.279732 -115.192543
v -372.979675 65.325470 -126.121826
v -332.846344 64.688622 -123.366142
v -372.979675 62.449898 -126.121826
v -332.533203 61.836044 -123.603546
v -353.649719 64.777733 -125.537231
v -353.685089 61.920052 -126.021492
v -354.145905 61.278370 -117.987022
v -354.110535 64.136055 -117.502762
v -372.647064 61.796738 -125.768143
v -328.363342 61.348686 -125.497223
v -372.647064 64.672310 -125.768143
v -327.998352 64.200356 -125.435532
v -373.100861 64.672310 -134.862045
v -327.030731 64.217674 -134.922211
v -373.100861 61.796738 -134.862045
v -327.395752 61.366009 -134.983902
v -354.689880 64.117531 -127.114182
v -355.112488 64.116447 -136.004242
v -355.105133 61.240887 -136.004242
v -354.682526 61.241966 -127.114182
v -339.633514 64.686066 -136.175140
v -339.837067 61.823917 -136.195999
v -340.879059 61.812916 -127.388054
v -340.675507 64.675064 -127.367203
v -382.464478 33.010956 -195.472107
v -377.535187 13.415585 -141.037125
v -382.926422 26.474157 -197.445724
v -377.974030 6.885047 -143.428162
v -385.732483 33.035702 -195.171005
v -380.803162 13.440322 -140.736023
v -386.194489 26.498903 -197.144623
v -381.242035 6.909790 -143.127045
v -379.575104 20.500368 -159.613708
v -382.843079 20.525106 -159.312576
v -383.289978 13.287930 -161.715927
v -380.021942 13.263186 -162.017014
v -380.514038 27.064741 -177.805695
v -383.782013 27.089483 -177.504578
v -384.236450 20.319908 -179.223480
v -380.968445 20.295168 -179.524597
v -318.264648 30.647688 -197.519119
v -319.024902 17.894497 -141.098251
v -317.929321 22.310698 -199.135239
v -318.727112 11.125348 -142.508362
v -321.543640 30.525511 -197.587631
v -322.303864 17.772320 -141.166779
v -321.208282 22.188519 -199.203751
v -322.006042 11.003169 -142.576889
v -318.145477 27.621618 -182.324020
v -321.424438 27.499441 -182.392532
v -321.099518 19.851456 -184.104294
v -317.820557 19.973635 -184.035782
v -318.191681 21.599855 -158.793472
v -321.470642 21.477678 -158.861984
v -321.160278 14.508715 -160.535538
v -317.881378 14.630893 -160.467026
v -382.576996 54.306339 -196.955002
v -378.081665 49.947933 -142.525391
v -382.946564 47.702763 -197.612732
v -378.481812 42.719353 -142.969910
v -385.842346 54.465778 -196.665939
v -381.346954 50.107365 -142.236313
v -386.211823 47.862194 -197.323669
v -381.747070 42.878780 -142.680847
v -384.759552 52.698006 -182.163300
v -385.137207 46.377823 -182.607681
v -381.871887 46.218395 -182.896729
v -381.494171 52.538567 -182.452347
v -382.811066 51.492451 -163.365738
v -383.199280 45.290150 -163.736786
v -379.933960 45.130718 -164.025833
v -379.545746 51.333019 -163.654785
# 298 texture coords
vt 0.738647 0.511116
vt 0.794297 0.511994
vt 0.621732 0.389554
vt 0.673416 0.391966
vt 0.626555 0.581830
vt 0.679032 0.567835
vt 0.499949 0.301243
vt 0.564438 0.300394
vt 0.564670 0.446017
vt 0.504247 0.444830
vt 0.853422 0.857541
vt 0.793810 0.856709
vt 0.904715 0.831146
vt 0.965289 0.831405
vt 0.441780 0.335124
vt 0.374912 0.333673
vt 0.375996 0.449175
vt 0.441803 0.441052
vt 0.152991 0.459754
vt 0.209977 0.461247
vt 0.153631 0.314769
vt 0.206088 0.319699
vt 0.033532 0.533575
vt 0.092334 0.534379
vt 0.040068 0.351867
vt 0.093751 0.353297
vt 0.271676 0.243346
vt 0.319149 0.243457
vt 0.270820 0.385527
vt 0.317622 0.385933
vt 0.017454 0.987356
vt 0.024122 0.880498
vt 0.085036 0.878030
vt 0.084563 0.990237
vt 0.021003 0.736503
vt 0.084715 0.734911
vt 0.014019 0.682987
vt 0.079755 0.678925
vt 0.157226 0.828518
vt 0.167399 0.992297
vt 0.106211 0.988153
vt 0.101621 0.831739
vt 0.159066 0.642765
vt 0.107156 0.664408
vt 0.863285 0.546330
vt 0.915419 0.541942
vt 0.858699 0.419271
vt 0.903813 0.411815
vt 0.181221 0.871848
vt 0.185948 0.744773
vt 0.238097 0.748395
vt 0.226505 0.878633
vt 0.180637 0.987217
vt 0.232971 0.987715
vt 0.181589 0.620835
vt 0.235223 0.614661
vt 0.249287 0.865350
vt 0.253929 0.673083
vt 0.306718 0.686688
vt 0.300790 0.862515
vt 0.251308 0.989701
vt 0.305818 0.986445
vt 0.251367 0.617083
vt 0.305118 0.619098
vt 0.326934 0.985418
vt 0.326504 0.849735
vt 0.380247 0.847940
vt 0.378810 0.985204
vt 0.317917 0.667854
vt 0.376704 0.666855
vt 0.318640 0.551721
vt 0.382339 0.552463
vt 0.393952 0.702059
vt 0.394580 0.552271
vt 0.446811 0.552131
vt 0.451179 0.700191
vt 0.395281 0.847147
vt 0.447470 0.841782
vt 0.399899 0.987530
vt 0.451114 0.984604
vt 0.468616 0.732835
vt 0.464069 0.573817
vt 0.518413 0.572250
vt 0.515260 0.731459
vt 0.473051 0.874678
vt 0.520618 0.873813
vt 0.469856 0.984424
vt 0.519672 0.984986
vt 0.544282 0.987156
vt 0.533664 0.852369
vt 0.600243 0.848149
vt 0.612387 0.982717
vt 0.530347 0.737911
vt 0.596490 0.744615
vt 0.537845 0.644464
vt 0.609069 0.650498
vt 0.622769 0.985976
vt 0.609318 0.841943
vt 0.669742 0.839282
vt 0.680479 0.979088
vt 0.611309 0.682380
vt 0.673000 0.682762
vt 0.693722 0.988091
vt 0.695498 0.854176
vt 0.755586 0.852687
vt 0.759622 0.985281
vt 0.695676 0.685991
vt 0.753959 0.682780
vt 0.481560 0.237385
vt 0.481540 0.199063
vt 0.577076 0.198378
vt 0.577095 0.236702
vt 0.568553 0.147816
vt 0.567945 0.186135
vt 0.483844 0.185708
vt 0.484453 0.147388
vt 0.855260 0.302314
vt 0.907597 0.300216
vt 0.835201 0.419487
vt 0.838251 0.303706
vt 0.924496 0.301403
vt 0.927476 0.410420
vt 0.916341 0.675384
vt 0.862586 0.670720
vt 0.838576 0.546625
vt 0.939903 0.540674
vt 0.838076 0.670209
vt 0.940988 0.674746
vt 0.484504 0.136177
vt 0.484453 0.109723
vt 0.565984 0.110848
vt 0.566033 0.137305
vt 0.477449 0.066605
vt 0.582111 0.067813
vt 0.581208 0.101377
vt 0.476546 0.100167
vt 0.480561 0.023277
vt 0.583167 0.023550
vt 0.583612 0.057123
vt 0.481006 0.056850
vt 0.602861 0.242867
vt 0.602289 0.204551
vt 0.687351 0.203642
vt 0.687924 0.241961
vt 0.599741 0.194178
vt 0.599392 0.155856
vt 0.683190 0.155219
vt 0.683539 0.193542
vt 0.604570 0.149141
vt 0.605018 0.110822
vt 0.686380 0.109803
vt 0.685932 0.148123
vt 0.608375 0.103386
vt 0.606693 0.065102
vt 0.686604 0.064275
vt 0.688285 0.102560
vt 0.686650 0.021028
vt 0.686435 0.059351
vt 0.608826 0.059043
vt 0.609041 0.020722
vt 0.708500 0.238683
vt 0.708783 0.200362
vt 0.793477 0.200893
vt 0.793194 0.239214
vt 0.794711 0.152650
vt 0.794272 0.190970
vt 0.713464 0.189850
vt 0.713906 0.151531
vt 0.710927 0.144735
vt 0.710911 0.106414
vt 0.810149 0.106478
vt 0.810166 0.144800
vt 0.711525 0.064728
vt 0.822864 0.066310
vt 0.822163 0.099880
vt 0.710824 0.098298
vt 0.826868 0.216968
vt 0.922984 0.216554
vt 0.921639 0.250151
vt 0.825523 0.250564
vt 0.828795 0.172693
vt 0.919729 0.173077
vt 0.920121 0.206652
vt 0.829186 0.206268
vt 0.841337 0.125013
vt 0.947653 0.124039
vt 0.947961 0.157615
vt 0.841644 0.158589
vt 0.862189 0.081306
vt 0.952811 0.081866
vt 0.952603 0.115443
vt 0.861981 0.114882
vt 0.859335 0.040415
vt 0.962077 0.041906
vt 0.960598 0.075451
vt 0.857856 0.073959
vt 0.040159 0.216177
vt 0.092126 0.216280
vt 0.015470 0.351138
vt 0.015555 0.215402
vt 0.116775 0.215272
vt 0.118259 0.352965
vt 0.097339 0.649018
vt 0.033619 0.649447
vt 0.008987 0.533475
vt 0.116995 0.534296
vt 0.008959 0.649928
vt 0.121887 0.648508
vt 0.230810 0.319404
vt 0.234398 0.461033
vt 0.231965 0.609736
vt 0.207275 0.608987
vt 0.207641 0.176518
vt 0.232138 0.177103
vt 0.154862 0.609352
vt 0.128502 0.459703
vt 0.128958 0.314342
vt 0.156527 0.174268
vt 0.130196 0.609967
vt 0.131972 0.174131
vt 0.347734 0.544287
vt 0.323238 0.545368
vt 0.342306 0.385651
vt 0.268993 0.544697
vt 0.343643 0.243448
vt 0.244447 0.544134
vt 0.246189 0.385327
vt 0.317643 0.132558
vt 0.342298 0.132016
vt 0.247085 0.243777
vt 0.267794 0.133446
vt 0.243227 0.134141
vt 0.379299 0.198591
vt 0.447415 0.199791
vt 0.468820 0.201196
vt 0.463373 0.335527
vt 0.353260 0.333490
vt 0.357769 0.198469
vt 0.463098 0.438064
vt 0.455458 0.536644
vt 0.384190 0.543227
vt 0.354729 0.448687
vt 0.476347 0.531691
vt 0.362451 0.542931
vt 0.907363 0.686332
vt 0.965248 0.690304
vt 0.986580 0.691500
vt 0.987032 0.831031
vt 0.971358 0.985515
vt 0.909791 0.987685
vt 0.883041 0.831150
vt 0.885877 0.686468
vt 0.992804 0.986785
vt 0.888415 0.990677
vt 0.857217 0.990516
vt 0.790747 0.988447
vt 0.769183 0.991307
vt 0.772711 0.856972
vt 0.793154 0.687675
vt 0.851915 0.690258
vt 0.874490 0.857512
vt 0.878818 0.993208
vt 0.771562 0.685334
vt 0.873460 0.687488
vt 0.572996 0.559089
vt 0.505533 0.562965
vt 0.483173 0.446242
vt 0.478169 0.302488
vt 0.502358 0.247609
vt 0.567335 0.248379
vt 0.586180 0.302658
vt 0.585911 0.446060
vt 0.483908 0.559854
vt 0.594075 0.553692
vt 0.481087 0.247027
vt 0.588180 0.250212
vt 0.712560 0.675604
vt 0.714031 0.511751
vt 0.737126 0.675445
vt 0.706381 0.326377
vt 0.730931 0.325273
vt 0.798047 0.668083
vt 0.783546 0.345261
vt 0.822713 0.667818
vt 0.818793 0.510935
vt 0.808138 0.343395
vt 0.601997 0.582037
vt 0.597106 0.389752
vt 0.624784 0.637901
vt 0.600139 0.638186
vt 0.597194 0.265478
vt 0.621767 0.265223
vt 0.678735 0.635089
vt 0.676183 0.267580
vt 0.698126 0.391791
vt 0.703439 0.567547
vt 0.703514 0.635673
vt 0.700651 0.268393
vn 0.794541 -0.313585 0.519970
vn 0.962826 0.269586 -0.016995
vn 0.932178 0.352662 0.081696
vn 0.773182 -0.196671 0.602918
vn -0.788474 0.310082 -0.531186
vn -0.793872 0.427317 -0.432629
vn -0.988126 -0.128250 0.084607
vn -0.964245 -0.264999 -0.002790
vn 0.912099 0.392807 -0.117383
vn -0.694500 0.408275 -0.592437
vn -0.969364 -0.238564 -0.058493
vn 0.847221 -0.247262 0.470189
vn 0.881841 -0.459161 0.107362
vn 0.922224 0.347571 -0.169402
vn 0.927080 0.374773 0.008306
vn 0.875672 -0.418294 0.241305
vn -0.867603 0.483237 -0.117246
vn -0.843667 0.528336 0.095332
vn -0.902705 -0.272921 0.332621
vn -0.940761 -0.303273 0.151640
vn -0.861021 0.323240 -0.392631
vn 0.850077 0.155800 -0.503085
vn 0.771136 -0.592124 -0.233964
vn -0.899357 -0.416491 -0.133015
vn 0.925091 0.339588 -0.169961
vn -0.852554 0.507742 -0.123898
vn -0.939289 -0.305804 0.155629
vn 0.886496 -0.448641 0.113339
vn 0.888718 -0.417233 -0.189994
vn 0.915996 0.383697 0.117171
vn 0.906953 0.321647 0.271990
vn 0.876495 -0.480843 0.023373
vn -0.904529 0.394211 0.162557
vn -0.897602 0.332204 0.289743
vn -0.886836 -0.460172 0.041985
vn -0.894102 -0.422263 -0.149252
vn -0.909129 0.414123 -0.044567
vn 0.895721 0.444556 -0.007367
vn 0.906757 -0.323603 -0.270319
vn -0.909242 -0.301705 -0.286798
vn 0.906720 0.403102 0.123966
vn -0.910098 0.385191 0.152805
vn -0.921800 -0.359670 -0.144644
vn 0.913378 -0.367611 -0.174935
vn -0.085784 -0.738767 0.668479
vn -0.030072 -0.732594 0.680002
vn 0.167496 0.981502 -0.092731
vn -0.149918 0.988563 -0.016357
vn 0.039464 0.776985 -0.628281
vn -0.251199 0.796377 -0.550166
vn -0.166399 -0.984944 0.046881
vn -0.212678 -0.976363 0.038523
vn 0.400072 -0.777665 0.484954
vn 0.240944 -0.969348 -0.048069
vn 0.284108 0.691050 -0.664629
vn 0.453293 0.882316 -0.126669
vn 0.060090 0.742262 -0.667410
vn -0.225101 -0.969381 0.098133
vn -0.076746 -0.750248 0.656687
vn 0.230942 0.971588 -0.051802
vn -0.338246 -0.892245 0.299146
vn -0.343343 -0.860718 0.375873
vn 0.314810 0.905044 0.285989
vn 0.004039 0.951274 0.308320
vn 0.351285 0.881033 -0.316828
vn 0.044997 0.925450 -0.376188
vn -0.292519 -0.891925 -0.344822
vn -0.308725 -0.906908 -0.286718
vn -0.362692 -0.867699 0.339932
vn -0.330328 -0.899259 -0.286734
vn 0.565563 0.745479 -0.352704
vn 0.524247 0.772334 0.358701
vn -0.184876 -0.937572 0.294583
vn -0.038979 -0.965568 0.257214
vn -0.011684 0.920527 0.390504
vn -0.105888 0.928522 0.355857
vn 0.038238 0.954836 -0.294664
vn -0.093676 0.948438 -0.302804
vn 0.008153 -0.916184 -0.400674
vn -0.175396 -0.902967 -0.392284
vn 0.105161 -0.960079 0.259208
vn 0.171859 -0.915728 -0.363189
vn 0.157844 0.950511 -0.267608
vn 0.078442 0.903586 0.421164
vn -0.158799 -0.934879 0.317465
vn 0.015019 -0.956848 0.290202
vn 0.015171 0.954235 0.298674
vn -0.103420 0.946241 0.306483
vn -0.012550 0.946458 -0.322585
vn -0.140947 0.947294 -0.287694
vn -0.012227 -0.950625 -0.310101
vn -0.197469 -0.935591 -0.292704
vn 0.139832 -0.934812 0.326456
vn 0.208986 -0.936028 -0.283154
vn 0.283543 0.926413 -0.247715
vn 0.217824 0.924129 0.313909
vn -0.021805 0.961437 0.274159
vn 0.011528 0.951461 -0.307554
vn 0.013376 -0.943017 -0.332476
vn -0.012147 -0.957689 0.287550
vn 0.879205 -0.418321 -0.228048
vn 0.927861 0.367908 0.060971
vn 0.935808 0.310075 0.167683
vn 0.892437 -0.440189 -0.098945
vn -0.883982 0.410195 0.224314
vn -0.856101 0.350330 0.379948
vn -0.905829 -0.409992 0.106677
vn -0.933241 -0.355049 -0.054790
vn -0.876359 0.473472 0.088426
vn 0.896330 0.427430 -0.117881
vn 0.841606 -0.380088 -0.383709
vn -0.931032 -0.323521 -0.168861
vn 0.930477 0.362922 0.049994
vn -0.871706 0.435879 0.223915
vn -0.931139 -0.359486 -0.061244
vn 0.883192 -0.412700 -0.222823
vn 0.929136 -0.365101 -0.058374
vn 0.898323 0.423087 0.118375
vn 0.867106 0.407163 0.286959
vn 0.901386 -0.416048 0.120030
vn -0.929055 0.363888 0.066652
vn -0.921053 0.339175 0.191370
vn -0.885605 -0.463523 0.029159
vn -0.890540 -0.440775 -0.112496
vn -0.924297 0.359538 -0.128088
vn 0.889493 0.439565 -0.124838
vn 0.920208 -0.293205 -0.259320
vn -0.895281 -0.361743 -0.260027
vn 0.901097 0.422723 0.096586
vn -0.933432 0.348844 0.083744
vn -0.907392 -0.412463 -0.080712
vn 0.939426 -0.335945 -0.067966
vn 0.916448 0.396713 -0.052368
vn 0.919725 0.377359 0.108197
vn 0.864500 -0.501296 0.036631
vn 0.867207 -0.484463 -0.115102
vn -0.860243 0.498813 0.105673
vn -0.851503 0.466378 0.239654
vn -0.899662 -0.402581 0.168927
vn -0.917077 -0.396477 0.042135
vn -0.858687 0.506510 -0.078135
vn 0.882715 0.416048 -0.218447
vn 0.829885 -0.464038 -0.309774
vn -0.909373 -0.379072 -0.171304
vn -0.862922 0.490605 0.121128
vn -0.909359 -0.412926 0.050582
vn 0.851844 -0.510754 -0.116153
vn 0.913337 0.404621 -0.045784
s 1
g polySurface140
usemtl lambert2SG
f 12/42/1 9/39/2 2/40/3 4/41/4
f 2/277/3 9/278/2 10/1/5 6/279/6
f 4/284/4 8/282/7 11/2/8 12/285/1
f 6/279/6 10/1/5 11/2/8 8/282/7
f 2/109/3 6/110/6 8/111/7 4/112/4
f 9/278/2 1/280/9 5/281/10 10/1/5
f 11/2/8 10/1/5 5/281/10 7/283/11
f 12/285/1 11/2/8 7/283/11 3/286/12
f 1/43/9 9/39/2 12/42/1 3/44/12
s 2
f 24/4/13 21/3/14 14/292/15 16/294/16
f 14/292/15 21/3/14 22/288/17 18/291/18
f 16/294/16 20/298/19 23/295/20 24/4/13
f 18/61/18 22/57/17 23/60/20 20/62/19
f 14/141/15 18/142/18 20/143/19 16/144/16
f 17/145/21 13/146/22 15/147/23 19/148/24
f 21/3/14 25/5/25 26/287/26 22/288/17
f 23/60/20 22/57/17 26/58/26 27/59/27
f 24/4/13 23/295/20 27/296/27 28/6/28
f 28/6/28 25/5/25 21/3/14 24/4/13
f 25/5/25 13/289/22 17/290/21 26/287/26
f 27/59/27 26/58/26 17/63/21 19/64/24
f 28/6/28 27/296/27 19/297/24 15/293/23
f 13/289/22 25/5/25 28/6/28 15/293/23
s 4
f 40/51/29 37/50/30 30/55/31 32/56/32
f 30/127/31 37/125/30 38/45/33 34/124/34
f 32/128/32 36/123/35 39/46/36 40/126/29
f 34/124/34 38/45/33 39/46/36 36/123/35
f 30/113/31 34/114/34 36/115/35 32/116/32
f 33/129/37 29/130/38 31/131/39 35/132/40
f 37/125/30 41/119/41 42/47/42 38/45/33
f 39/46/36 38/45/33 42/47/42 43/48/43
f 40/126/29 39/46/36 43/48/43 44/122/44
f 44/52/44 41/49/41 37/50/30 40/51/29
f 41/119/41 29/120/38 33/117/37 42/47/42
f 43/48/43 42/47/42 33/117/37 35/118/40
f 44/122/44 43/48/43 35/118/40 31/121/39
f 29/53/38 41/49/41 44/52/44 31/54/39
s 6
f 45/273/45 55/267/46 56/10/47 47/266/48
f 47/266/48 56/10/47 53/9/49 49/265/50
f 49/265/50 53/9/49 54/272/51 51/274/52
f 51/31/52 54/32/51 55/33/46 45/34/45
f 58/137/53 57/138/54 59/139/55 60/140/56
f 51/133/52 45/134/45 47/135/48 49/136/50
f 53/9/49 50/8/57 52/271/58 54/272/51
f 55/33/46 54/32/51 52/35/58 46/36/59
f 56/10/47 55/267/46 46/268/59 48/7/60
f 53/9/49 56/10/47 48/7/60 50/8/57
f 46/36/59 52/35/58 57/37/54 58/38/53
f 52/271/58 50/8/57 59/270/55 57/276/54
f 50/8/57 48/7/60 60/269/56 59/270/55
f 48/7/60 46/268/59 58/275/53 60/269/56
s 8
f 61/257/61 71/258/62 72/12/63 63/256/64
f 63/256/64 72/12/63 69/11/65 65/255/66
f 65/255/66 69/11/65 70/261/67 67/262/68
f 67/103/68 70/104/67 71/105/62 61/106/61
f 62/181/69 68/182/70 66/183/71 64/184/72
f 67/193/68 61/194/61 63/195/64 65/196/66
f 69/11/65 66/260/71 68/264/70 70/261/67
f 71/105/62 70/104/67 68/107/70 62/108/69
f 72/12/63 71/258/62 62/263/69 64/259/72
f 69/11/65 72/12/63 64/259/72 66/260/71
s 9
f 73/247/73 83/248/74 84/14/75 75/246/76
f 75/246/76 84/14/75 81/13/77 77/245/78
f 77/245/78 81/13/77 82/251/79 79/252/80
f 79/97/80 82/98/79 83/99/74 73/100/73
f 74/177/81 80/178/82 78/179/83 76/180/84
f 79/189/80 73/190/73 75/191/76 77/192/78
f 81/13/77 78/250/83 80/254/82 82/251/79
f 83/99/74 82/98/79 80/101/82 74/102/81
f 84/14/75 83/248/74 74/253/81 76/249/84
f 81/13/77 84/14/75 76/249/84 78/250/83
s 10
f 85/235/85 96/236/86 93/15/87 87/234/88
f 87/234/88 93/15/87 94/16/89 89/233/90
f 89/233/90 94/16/89 95/237/91 91/238/92
f 91/89/92 95/90/91 96/91/86 85/92/85
f 86/173/93 92/174/94 90/175/95 88/176/96
f 91/185/92 85/186/85 87/187/88 89/188/90
f 93/15/87 100/18/97 97/17/98 94/16/89
f 95/237/91 94/16/89 97/17/98 98/242/99
f 96/91/86 95/90/91 98/93/99 99/94/100
f 93/15/87 96/236/86 99/239/100 100/18/97
f 98/242/99 97/17/98 90/241/95 92/244/94
f 99/94/100 98/93/99 92/95/94 86/96/93
f 100/18/97 99/239/100 86/243/93 88/240/96
f 97/17/98 100/18/97 88/240/96 90/241/95
s 12
f 112/76/101 109/73/102 102/74/103 104/75/104
f 102/219/103 109/216/102 110/19/105 106/215/106
f 104/211/104 108/212/107 111/20/108 112/210/101
f 106/215/106 110/19/105 111/20/108 108/212/107
f 102/149/103 106/150/106 108/151/107 104/152/104
f 105/153/109 101/154/110 103/155/111 107/156/112
f 109/216/102 113/217/113 114/21/114 110/19/105
f 111/20/108 110/19/105 114/21/114 115/22/115
f 112/210/101 111/20/108 115/22/115 116/209/116
f 116/78/116 113/77/113 109/73/102 112/76/101
f 113/217/113 101/220/110 105/218/109 114/21/114
f 115/22/115 114/21/114 105/218/109 107/213/112
f 116/209/116 115/22/115 107/213/112 103/214/111
f 101/79/110 113/77/113 116/78/116 103/80/111
s 14
f 132/26/117 129/25/118 118/197/119 120/198/120
f 118/197/119 129/25/118 130/199/121 122/200/122
f 120/198/120 124/201/123 131/202/124 132/26/117
f 122/65/122 130/66/121 131/67/124 124/68/123
f 118/165/119 122/166/122 124/167/123 120/168/120
f 121/169/125 117/170/126 119/171/127 123/172/128
f 125/23/129 117/204/126 121/207/125 126/205/130
f 127/70/131 126/69/130 121/71/125 123/72/128
f 128/24/132 127/206/131 123/208/128 119/203/127
f 117/204/126 125/23/129 128/24/132 119/203/127
f 129/25/118 125/23/129 126/205/130 130/199/121
f 131/67/124 130/66/121 126/69/130 127/70/131
f 132/26/117 131/202/124 127/206/131 128/24/132
f 128/24/132 125/23/129 129/25/118 132/26/117
s 16
f 148/81/133 134/82/134 136/83/135 147/84/136
f 134/226/134 148/227/133 145/29/137 138/224/138
f 136/221/135 140/222/139 146/30/140 147/223/136
f 138/224/138 145/29/137 146/30/140 140/222/139
f 134/161/134 138/162/138 140/163/139 136/164/135
f 137/157/141 133/158/142 135/159/143 139/160/144
f 141/27/145 137/231/141 139/228/144 142/28/146
f 143/225/147 142/28/146 139/228/144 135/229/143
f 133/87/142 144/85/148 143/86/147 135/88/143
f 141/27/145 144/230/148 133/232/142 137/231/141
f 145/29/137 141/27/145 142/28/146 146/30/140
f 147/223/136 146/30/140 142/28/146 143/225/147
f 144/85/148 148/81/133 147/84/136 143/86/147
f 145/29/137 148/227/133 144/230/148 141/27/145
