# This file uses centimeters as units for non-parametric coordinates.

mtllib Scaffold_Board.mtl
g default
v -318.085999 0.000000 -81.635544
v -306.281158 0.000000 -83.600067
v -318.474792 2.858818 -83.981934
v -306.669952 2.858819 -85.946449
v -321.362579 16.696375 -105.810272
v -309.306671 16.696375 -107.900337
v -321.541718 14.208865 -106.228752
v -309.485809 14.208866 -108.318810
v -308.016937 9.672064 -95.873711
v -319.653503 9.672064 -94.264679
v -319.832672 7.571568 -95.685776
v -308.196106 7.571567 -97.294800
v -315.229309 7.571568 -96.275032
v -313.398956 0.000000 -82.057404
v -313.803192 2.633374 -84.520172
v -315.065613 9.446619 -94.970314
v -316.732849 16.470930 -107.143631
v -316.896545 14.208865 -107.445724
v -312.789246 32.345463 -192.547653
v -299.493439 32.251198 -189.755920
v -312.757294 35.285210 -192.709091
v -299.473328 35.192223 -189.781998
v -307.840820 33.076355 -230.020187
v -293.742859 33.030685 -228.579041
v -307.872772 30.136612 -229.858734
v -293.774811 30.090942 -228.417587
v -297.213959 35.104061 -201.625732
v -310.059906 35.149731 -205.654358
v -310.091858 32.209988 -205.492905
v -297.245911 32.164318 -201.464279
v -296.110596 33.565521 -217.055984
v -309.040039 33.611191 -217.996323
v -309.071991 30.671450 -217.834869
v -296.142548 30.625780 -216.894531
v -304.615021 35.480949 -203.894852
v -305.699005 35.205917 -189.960419
v -305.707672 32.264893 -190.150864
v -304.646515 32.584072 -203.735764
v -303.543182 31.045534 -218.164398
v -301.847412 30.118336 -229.916321
v -301.815460 33.058079 -230.077774
v -303.511688 33.942413 -218.323502
v -309.969482 31.293713 -157.535324
v -296.624817 31.048641 -158.843445
v -310.367249 33.990952 -157.502686
v -296.616547 33.990948 -158.734177
v -312.452179 35.144905 -187.899216
v -312.460449 32.202599 -188.008484
v -298.799225 35.090630 -179.506943
v -310.964050 35.090626 -178.108505
v -310.972290 32.148319 -178.217773
v -298.807465 32.148319 -179.616211
v -297.962341 34.057358 -168.682816
v -311.045319 34.057362 -166.533203
v -311.053589 31.115055 -166.642456
v -297.970581 31.115053 -168.792084
v -303.596771 33.650131 -168.580795
v -303.749023 33.616211 -158.762756
v -303.843994 31.048645 -158.893219
v -303.602600 31.573706 -168.657898
v -304.439484 32.606972 -179.482025
v -304.433655 34.683395 -179.404907
v -311.959656 32.540195 -135.187622
v -298.657104 32.540195 -132.307373
v -312.186890 35.173630 -134.337921
v -298.639069 35.477757 -132.506256
v -296.684814 33.892590 -156.221680
v -296.702850 30.955017 -156.022812
v -297.533630 34.518986 -145.528778
v -310.084961 34.518990 -146.572754
v -310.102997 31.581421 -146.373901
v -297.551605 31.581423 -145.329895
v -304.605438 34.242615 -146.399857
v -306.117004 35.135529 -132.938156
v -306.228027 32.540195 -134.282242
v -304.619202 31.998583 -146.247940
v -303.706543 31.048645 -157.200958
v -303.815918 33.616211 -157.502670
v -318.963257 15.098642 -108.992279
v -307.663330 15.098644 -104.783890
v -319.500000 17.778183 -108.079346
v -308.200043 16.693651 -104.077499
v -298.966888 34.869499 -128.334259
v -311.895416 32.375885 -134.202255
v -298.430176 32.375885 -129.247208
v -304.160339 25.659828 -115.852631
v -315.126404 25.659828 -120.979156
v -314.589691 23.476086 -122.139999
v -303.623627 23.476086 -117.013474
v -309.096405 23.672604 -118.789154
v -313.845032 15.098642 -106.174667
v -314.424835 16.937521 -105.143661
v -309.633911 25.860008 -117.626152
v -305.873047 32.572403 -131.968491
v -320.046387 13.523701 -106.428833
v -314.928162 13.523701 -103.611221
v -320.583130 15.832116 -105.515900
v -308.746460 13.523703 -102.220444
vt 0.375000 0.000000
vt 0.625000 0.000000
vt 0.375000 0.250000
vt 0.625000 0.250000
vt 0.375000 0.500000
vt 0.625000 0.500000
vt 0.375000 0.750000
vt 0.625000 0.750000
vt 0.375000 1.000000
vt 0.625000 1.000000
vt 0.875000 0.000000
vt 0.875000 0.250000
vt 0.125000 0.000000
vt 0.125000 0.250000
vt 0.625000 0.380831
vt 0.755831 0.250000
vt 0.244169 0.250000
vt 0.375000 0.380831
vt 0.244169 0.000000
vt 0.375000 0.869169
vt 0.625000 0.869169
vt 0.755831 0.000000
vt 0.473188 0.869169
vt 0.473188 0.000000
vt 0.473188 1.000000
vt 0.473188 0.250000
vt 0.473188 0.380831
vt 0.473188 0.500000
vt 0.473188 0.750000
vt 0.483826 0.250000
vt 0.625000 0.250000
vt 0.625000 0.335650
vt 0.483826 0.335650
vt 0.483826 0.500000
vt 0.625000 0.500000
vt 0.625000 0.750000
vt 0.483826 0.750000
vt 0.483826 0.914350
vt 0.625000 0.914350
vt 0.625000 1.000000
vt 0.483826 1.000000
vt 0.625000 0.000000
vt 0.710650 0.000000
vt 0.710650 0.250000
vt 0.289350 0.000000
vt 0.375000 0.000000
vt 0.375000 0.250000
vt 0.289350 0.250000
vt 0.483826 0.425522
vt 0.625000 0.425522
vt 0.199478 0.000000
vt 0.199478 0.250000
vt 0.483826 0.824478
vt 0.625000 0.824478
vt 0.800522 0.000000
vt 0.800522 0.250000
vt 0.125000 0.000000
vt 0.125000 0.250000
vt 0.875000 0.000000
vt 0.875000 0.250000
vt 0.375000 0.335650
vt 0.375000 0.914350
vt 0.375000 1.000000
vt 0.375000 0.824478
vt 0.375000 0.750000
vt 0.375000 0.500000
vt 0.375000 0.425522
vt 0.531474 0.250000
vt 0.625000 0.250000
vt 0.625000 0.331521
vt 0.531474 0.331521
vt 0.531474 0.918479
vt 0.625000 0.918479
vt 0.625000 1.000000
vt 0.531474 1.000000
vt 0.625000 0.000000
vt 0.706521 0.000000
vt 0.706521 0.250000
vt 0.293479 0.000000
vt 0.375000 0.000000
vt 0.375000 0.250000
vt 0.293479 0.250000
vt 0.531474 0.421108
vt 0.625000 0.421108
vt 0.625000 0.500000
vt 0.531474 0.500000
vt 0.125000 0.000000
vt 0.203892 0.000000
vt 0.203892 0.250000
vt 0.125000 0.250000
vt 0.531474 0.750000
vt 0.625000 0.750000
vt 0.625000 0.828892
vt 0.531474 0.828892
vt 0.796108 0.250000
vt 0.796108 0.000000
vt 0.875000 0.000000
vt 0.875000 0.250000
vt 0.375000 0.331521
vt 0.375000 0.918479
vt 0.375000 1.000000
vt 0.375000 0.828892
vt 0.375000 0.750000
vt 0.375000 0.421108
vt 0.375000 0.500000
vt 0.000000 0.000000
vt 1.000000 0.000000
vt 0.731871 0.577281
vt 0.000000 0.000000
vt 1.000000 0.000000
vt 0.236483 0.561217
vt 0.000000 0.000000
vt 0.612781 0.000000
vt 0.693522 0.944123
vt 0.083352 1.000000
vt 0.496898 0.250000
vt 0.625000 0.250000
vt 0.625000 0.391435
vt 0.496898 0.391435
vt 0.496898 0.858565
vt 0.625000 0.858565
vt 0.625000 1.000000
vt 0.496898 1.000000
vt 0.625000 0.000000
vt 0.766435 0.000000
vt 0.766435 0.250000
vt 0.233565 0.000000
vt 0.375000 0.000000
vt 0.375000 0.250000
vt 0.233565 0.250000
vt 0.496898 0.500000
vt 0.625000 0.500000
vt 0.125000 0.000000
vt 0.125000 0.250000
vt 0.496898 0.750000
vt 0.625000 0.750000
vt 0.875000 0.000000
vt 0.875000 0.250000
vt 0.375000 0.391435
vt 0.375000 0.858565
vt 0.375000 1.000000
vt 0.375000 0.750000
vt 0.375000 0.500000
vt 0.000000 0.000000
vt 1.000000 0.000000
vt 0.044598 0.181615
vt 0.000000 0.000000
vt 0.991427 0.000000
vt 1.000000 0.169858
vt 0.008784 0.341989
vt 0.083499 0.000000
vt 1.000000 0.000000
vt 0.911474 0.874340
vt 0.000000 0.778498
vt 0.000000 0.000000
vt 1.000000 0.000000
vt 0.963071 0.267866
vt 0.000000 0.000000
vt 1.000000 0.000000
vt 0.991885 0.390954
vt 0.020655 0.234219
vt 0.375000 0.000000
vt 0.500221 0.125000
vt 0.375000 0.250000
vt 0.375000 0.250000
vt 0.500221 0.250000
vt 0.500221 0.370757
vt 0.375000 0.370757
vt 0.375000 0.879243
vt 0.500221 0.879243
vt 0.500221 1.000000
vt 0.375000 1.000000
vt 0.625000 0.000000
vt 0.745757 0.000000
vt 0.745757 0.250000
vt 0.625000 0.250000
vt 0.254243 0.000000
vt 0.375000 0.000000
vt 0.254243 0.250000
vt 0.500221 0.500000
vt 0.375000 0.500000
vt 0.125000 0.000000
vt 0.125000 0.250000
vt 0.375000 0.750000
vt 0.500221 0.750000
vt 0.875000 0.000000
vt 0.875000 0.250000
vt 0.625000 0.879243
vt 0.625000 1.000000
vt 0.625000 0.125000
vt 0.625000 0.370757
vt 0.625000 0.500000
vt 0.625000 0.750000
vt 0.000000 0.000000
vt 0.712179 0.000000
vt 1.000000 0.255160
vt 0.026657 0.119190
vt 0.118370 0.332010
vt 0.927515 0.000000
vt 1.000000 0.294334
vt 0.082544 0.000000
vt 0.867180 0.176751
vt 0.000000 0.474100
vt 0.089434 0.000000
vt 0.802573 0.000000
vt 0.586846 1.000000
vt 0.000000 0.723619
vt 0.000000 0.000000
vt 0.694037 0.000000
vt 1.000000 0.150253
vt 0.159748 0.293977
vt 0.500221 0.000000
vn -0.145599 -0.921570 -0.359875
vn -0.053729 -0.925598 -0.374675
vn 0.093717 0.798162 0.595109
vn -0.463883 0.682140 0.565241
vn 0.079909 0.851219 0.518691
vn -0.305783 0.788390 0.533796
vn -0.241804 0.889628 0.387418
vn 0.046454 0.942944 0.329694
vn -0.102915 -0.761814 -0.639569
vn -0.605847 -0.649953 -0.458814
vn -0.451927 -0.801117 -0.392394
vn -0.074693 -0.871568 -0.484552
vn -0.000022 -0.922068 -0.387028
vn 0.193568 -0.843189 -0.501561
vn 0.330648 0.819920 0.467337
vn 0.444746 0.743795 0.498969
vn 0.286819 -0.714209 -0.638467
vn 0.268667 0.911168 0.312395
vn 0.003339 0.999861 0.016336
vn 0.366857 0.929207 0.044619
vn 0.414601 0.909985 0.005762
vn 0.017864 0.998539 -0.050995
vn 0.035834 0.947718 -0.317090
vn 0.407033 0.887818 -0.214718
vn 0.349838 -0.929699 -0.115205
vn 0.017414 -0.978498 -0.205521
vn -0.018199 -0.998553 0.050602
vn 0.350881 -0.932133 0.089499
vn 0.344153 -0.938574 0.025267
vn -0.001391 -0.999999 -0.000825
vn -0.392000 -0.919930 -0.008069
vn -0.422261 -0.904239 -0.063617
vn -0.442781 0.894955 -0.054775
vn -0.416712 0.902297 -0.110502
vn 0.017183 0.996478 -0.082072
vn 0.400004 0.916102 -0.027446
vn -0.410468 -0.910704 0.046209
vn -0.482095 0.867468 -0.122821
vn -0.017383 -0.996404 0.082928
vn 0.287642 -0.950215 0.119804
vn -0.404114 -0.893003 -0.198085
vn -0.438274 0.846081 -0.303418
vn -0.000291 0.999971 0.007602
vn 0.415184 0.909007 -0.036437
vn 0.395736 0.918364 -0.000326
vn 0.006377 0.998438 0.055511
vn -0.011803 -0.998007 -0.061991
vn 0.379427 -0.920081 -0.097392
vn 0.434331 -0.897991 -0.070495
vn -0.010706 -0.999701 -0.021987
vn -0.365758 -0.930032 -0.035534
vn -0.390880 -0.919680 0.037430
vn -0.379911 0.925020 -0.002272
vn -0.350303 0.934902 0.056974
vn 0.006776 0.998141 0.060567
vn 0.401233 0.915491 0.029800
vn -0.393359 -0.917716 0.055368
vn -0.345162 -0.938306 -0.021101
vn -0.314020 0.945835 0.082391
vn -0.408361 0.909582 0.076828
vn 0.412404 -0.908404 -0.068739
vn -0.004820 -0.999242 -0.038621
vn -0.128388 0.957822 0.257088
vn 0.347451 0.937606 -0.013135
vn 0.344264 0.938313 -0.032414
vn 0.001078 0.998140 -0.060953
vn -0.015441 -0.997953 0.062066
vn 0.342053 -0.935450 0.089074
vn 0.396661 -0.915604 0.065804
vn -0.009099 -0.998783 0.048479
vn -0.390891 -0.920135 0.023566
vn -0.470549 -0.881846 -0.030523
vn -0.368749 0.905100 0.211704
vn -0.357281 0.930345 -0.082516
vn 0.005389 0.998902 -0.046530
vn 0.358331 0.933398 -0.019154
vn -0.018017 -0.998505 0.051610
vn 0.343287 -0.935960 0.078322
vn -0.275176 -0.922813 -0.269620
vn -0.048430 -0.522161 0.851471
vn -0.581938 0.447249 0.679203
vn -0.576516 0.742162 0.341796
vn -0.169669 0.784544 0.596408
vn -0.196066 0.838864 0.507804
vn -0.556813 0.757345 0.341157
vn -0.087191 -0.810717 -0.578909
vn 0.209161 -0.836069 -0.507189
vn 0.200012 -0.850047 -0.487254
vn -0.076472 -0.824119 -0.561230
vn 0.395762 -0.820820 -0.411859
vn 0.463506 -0.799604 -0.381833
vn 0.133885 0.783731 0.606498
vn 0.153971 0.718061 0.678736
vn -0.227509 -0.805871 -0.546637
vn 0.192623 -0.864897 -0.463519
vn 0.551538 -0.780705 -0.293779
vn 0.083006 0.832578 0.547654
vn -0.050679 -0.578622 0.814020
s 1
g pCube40
usemtl lambert2SG
f 1/1/1 14/24/2 15/26/3 3/3/4
f 3/3/4 15/26/3 16/27/5 10/18/6
f 5/5/7 17/28/8 18/29/9 7/7/10
f 11/20/11 13/23/12 14/25/2 1/9/1
f 2/2/13 12/22/14 9/16/15 4/4/16
f 11/19/11 1/1/1 3/3/4 10/17/6
f 10/18/6 16/27/5 17/28/8 5/5/7
f 7/13/10 11/19/11 10/17/6 5/14/7
f 7/7/10 18/29/9 13/23/12 11/20/11
f 9/16/15 12/22/14 8/11/17 6/12/18
f 13/23/12 12/21/14 2/10/13 14/25/2
f 15/26/3 14/24/2 2/2/13 4/4/16
f 16/27/5 15/26/3 4/4/16 9/15/15
f 17/28/8 16/27/5 9/15/15 6/6/18
f 18/29/9 17/28/8 6/6/18 8/8/17
f 13/23/12 18/29/9 8/8/17 12/21/14
s 2
f 36/30/19 22/31/20 27/32/21 35/33/22
f 41/34/23 24/35/24 26/36/25 40/37/26
f 38/38/27 30/39/28 20/40/29 37/41/30
f 20/42/29 30/43/28 27/44/21 22/31/20
f 29/45/31 19/46/32 21/47/33 28/48/34
f 42/49/35 35/33/22 27/32/21 31/50/36
f 33/51/37 29/45/31 28/48/34 32/52/38
f 39/53/39 34/54/40 30/39/28 38/38/27
f 27/44/21 30/43/28 34/55/40 31/56/36
f 42/49/35 31/50/36 24/35/24 41/34/23
f 25/57/41 33/51/37 32/52/38 23/58/42
f 40/37/26 26/36/25 34/54/40 39/53/39
f 31/56/36 34/55/40 26/59/25 24/60/24
f 21/47/33 36/30/19 35/33/22 28/61/34
f 29/62/31 38/38/27 37/41/30 19/63/32
f 33/64/37 39/53/39 38/38/27 29/62/31
f 25/65/41 40/37/26 39/53/39 33/64/37
f 23/66/42 41/34/23 40/37/26 25/65/41
f 32/67/38 42/49/35 41/34/23 23/66/42
f 28/61/34 35/33/22 42/49/35 32/67/38
f 58/68/43 46/69/44 53/70/45 57/71/46
f 60/72/47 56/73/48 44/74/49 59/75/50
f 44/76/49 56/77/48 53/78/45 46/69/44
f 55/79/51 43/80/52 45/81/53 54/82/54
f 62/83/55 49/84/56 22/85/20 36/86/19
f 48/87/57 51/88/58 50/89/59 47/90/60
f 37/91/30 20/92/29 52/93/61 61/94/62
f 49/95/56 52/96/61 20/97/29 22/98/20
f 62/83/55 57/71/46 53/70/45 49/84/56
f 51/88/58 55/79/51 54/82/54 50/89/59
f 61/94/62 52/93/61 56/73/48 60/72/47
f 53/78/45 56/77/48 52/96/61 49/95/56
f 45/81/53 58/68/43 57/71/46 54/99/54
f 55/100/51 60/72/47 59/75/50 43/101/52
f 51/102/58 61/94/62 60/72/47 55/100/51
f 48/103/57 37/91/30 61/94/62 51/102/58
f 50/104/59 62/83/55 36/86/19 47/105/60
f 54/99/54 57/71/46 62/83/55 50/104/59
f 36/106/19 21/107/33 47/108/60
f 19/109/32 37/110/30 48/111/57
f 21/112/33 19/113/32 48/114/57 47/115/60
f 74/116/63 66/117/64 69/118/65 73/119/66
f 76/120/67 72/121/68 64/122/69 75/123/70
f 64/124/69 72/125/68 69/126/65 66/117/64
f 71/127/71 63/128/72 65/129/73 70/130/74
f 78/131/75 73/119/66 69/118/65 67/132/76
f 43/133/52 71/127/71 70/130/74 45/134/53
f 77/135/77 68/136/78 72/121/68 76/120/67
f 69/126/65 72/125/68 68/137/78 67/138/76
f 65/129/73 74/116/63 73/119/66 70/139/74
f 71/140/71 76/120/67 75/123/70 63/141/72
f 43/142/52 77/135/77 76/120/67 71/140/71
f 70/139/74 73/119/66 78/131/75 45/143/53
f 58/144/43 45/145/53 78/146/75
f 46/147/44 58/148/43 78/149/75 67/150/76
f 67/151/76 68/152/78 44/153/49 46/154/44
f 43/155/52 59/156/50 77/157/77
f 59/158/50 44/159/49 68/160/78 77/161/77
f 95/162/79 96/163/80 97/164/81
f 81/165/82 92/166/83 93/167/84 87/168/85
f 88/169/86 90/170/87 91/171/88 79/172/89
f 80/173/90 89/174/91 86/175/92 82/176/93
f 88/177/86 79/178/89 81/165/82 87/179/85
f 87/168/85 93/167/84 74/180/63 65/181/73
f 84/182/94 88/177/86 87/179/85 65/183/73
f 84/184/94 94/185/95 90/170/87 88/169/86
f 86/175/92 89/174/91 85/186/96 83/187/97
f 90/170/87 89/188/91 80/189/90 91/171/88
f 93/167/84 92/166/83 82/176/93 86/191/92
f 74/180/63 93/167/84 86/191/92 83/192/97
f 90/170/87 94/185/95 85/193/96 89/188/91
f 63/194/72 75/195/70 94/196/95 84/197/94
f 65/198/73 63/199/72 84/200/94
f 66/201/64 74/202/63 83/203/97
f 64/204/69 66/205/64 83/206/97 85/207/96
f 85/208/96 94/209/95 75/210/70 64/211/69
f 79/178/89 91/212/88 96/163/80 95/162/79
f 92/166/83 81/165/82 97/164/81 96/163/80
f 81/165/82 79/178/89 95/162/79 97/164/81
f 91/212/88 80/173/90 98/190/98 96/163/80
f 80/173/90 82/176/93 98/190/98
f 82/176/93 92/166/83 96/163/80 98/190/98
