# This file uses centimeters as units for non-parametric coordinates.
# UVs by headus UVLayout v2.08.00 2012/05/02 06:40:44

mtllib Brick.mtl
g default
v -3.000000 0.000000 6.000000
v 3.000000 0.000000 6.000000
v -2.733333 0.750000 5.700000
v 2.733333 0.750000 5.700000
v -2.733333 0.750000 -5.700000
v 2.733333 0.750000 -5.700000
v -3.000000 0.000000 -6.000000
v 3.000000 0.000000 -6.000000
# 8 texture coords
vt 0.808474 0.351717
vt 0.963261 0.351811
vt 0.808273 0.679451
vt 0.963060 0.679545
vt 0.794091 0.336581
vt 0.977663 0.336693
vt 0.977444 0.694681
vt 0.793872 0.694569
vn -0.798443 0.445769 0.404695
vn 0.798443 0.445769 0.404695
vn 0.155753 0.984969 0.074681
vn -0.155753 0.984969 0.074681
vn 0.155753 0.984969 -0.074681
vn -0.155753 0.984969 -0.074681
vn 0.798443 0.445769 -0.404695
vn -0.798443 0.445769 -0.404695
s 1
g pCube70
usemtl initialShadingGroup
f 1/5/1 2/6/2 4/2/3 3/1/4
f 3/1/4 4/2/3 6/4/5 5/3/6
f 5/3/6 6/4/5 8/7/7 7/8/8
f 2/6/2 8/7/7 6/4/5 4/2/3
f 7/8/8 1/5/1 3/1/4 5/3/6
