# This file uses centimeters as units for non-parametric coordinates.

mtllib Torch.mtl
g default
v 0.141940 0.000000 -0.081949
v 0.081949 0.000000 -0.141940
v 0.000000 0.000000 -0.163899
v -0.081949 0.000000 -0.141940
v -0.141940 0.000000 -0.081949
v -0.163899 0.000000 0.000000
v -0.141940 0.000000 0.081949
v -0.081949 0.000000 0.141940
v 0.000000 0.000000 0.163899
v 0.081949 0.000000 0.141940
v 0.141940 0.000000 0.081949
v 0.163899 0.000000 0.000000
v 0.221809 5.260636 -0.128062
v 0.128062 5.260636 -0.221809
v 0.000000 5.260636 -0.256123
v -0.128062 5.260636 -0.221809
v -0.221809 5.260636 -0.128062
v -0.256123 5.260636 0.000000
v -0.221809 5.260636 0.128062
v -0.128062 5.260636 0.221809
v 0.000000 5.260636 0.256123
v 0.128062 5.260636 0.221809
v 0.221809 5.260636 0.128062
v 0.256123 5.260636 0.000000
v 0.000000 0.000000 0.000000
v 0.000000 5.260636 0.000000
v 0.000000 4.217434 0.293328
v -0.146664 4.217434 0.254030
v -0.254030 4.217434 0.146664
v -0.293328 4.217434 0.000000
v -0.254030 4.217434 -0.146664
v -0.146664 4.217434 -0.254030
v 0.000000 4.217434 -0.293328
v 0.146664 4.217434 -0.254030
v 0.254030 4.217434 -0.146664
v 0.293328 4.217434 0.000000
v 0.254030 4.217434 0.146664
v 0.146664 4.217434 0.254030
v 0.000000 4.069031 0.239789
v -0.119894 4.069031 0.207663
v -0.207663 4.069031 0.119894
v -0.239789 4.069031 0.000000
v -0.207663 4.069031 -0.119894
v -0.119894 4.069031 -0.207663
v 0.000000 4.069031 -0.239789
v 0.119894 4.069031 -0.207663
v 0.207663 4.069031 -0.119894
v 0.239789 4.069031 0.000000
v 0.207663 4.069031 0.119894
v 0.119894 4.069031 0.207663
v 0.000000 5.143227 0.308900
v -0.154450 5.143227 0.267516
v -0.267516 5.143227 0.154450
v -0.308900 5.143227 0.000000
v -0.267516 5.143227 -0.154450
v -0.154450 5.143227 -0.267516
v 0.000000 5.143227 -0.308900
v 0.154450 5.143227 -0.267516
v 0.267516 5.143227 -0.154450
v 0.308900 5.143227 0.000000
v 0.267516 5.143227 0.154450
v 0.154450 5.143227 0.267516
vt 0.211576 0.041117
vt 0.226480 0.040445
vt 0.261898 0.766131
vt 0.237880 0.767130
vt 0.241425 0.039417
vt 0.285506 0.764747
vt 0.256464 0.038252
vt 0.308108 0.762359
vt 0.077591 0.037816
vt 0.092623 0.039049
vt 0.045248 0.764171
vt 0.022657 0.761677
vt 0.107562 0.040150
vt 0.068849 0.765666
vt 0.122462 0.040895
vt 0.092862 0.766781
vt 0.137332 0.041404
vt 0.117006 0.767597
vt 0.152179 0.041721
vt 0.141184 0.768113
vt 0.167017 0.041851
vt 0.165368 0.768326
vt 0.181855 0.041796
vt 0.189552 0.768230
vt 0.196704 0.041553
vt 0.213732 0.767831
vt 0.840466 0.698951
vt 0.848433 0.728684
vt 0.788967 0.728684
vt 0.818700 0.677185
vt 0.788967 0.669218
vt 0.759234 0.677185
vt 0.737468 0.698951
vt 0.729501 0.728684
vt 0.737468 0.758417
vt 0.759234 0.780183
vt 0.788967 0.788150
vt 0.818700 0.780183
vt 0.840466 0.758417
vt 0.938738 0.949305
vt 0.904725 0.983318
vt 0.858261 0.902841
vt 0.858262 0.995768
vt 0.811798 0.983318
vt 0.777784 0.949305
vt 0.765334 0.902841
vt 0.777784 0.856377
vt 0.811798 0.822364
vt 0.858262 0.809914
vt 0.904725 0.822364
vt 0.938738 0.856378
vt 0.951188 0.902841
vt 0.116130 0.795451
vt 0.140730 0.795994
vt 0.138296 0.961113
vt 0.111684 0.960496
vt 0.091448 0.794586
vt 0.085050 0.959484
vt 0.066562 0.793417
vt 0.058323 0.958056
vt 0.041187 0.791894
vt 0.031245 0.956366
vt 0.014939 0.789078
vt 0.003313 0.955594
vt 0.289435 0.792491
vt 0.315698 0.789799
vt 0.326522 0.956370
vt 0.298586 0.957009
vt 0.264054 0.793891
vt 0.271501 0.958569
vt 0.239161 0.794943
vt 0.244767 0.959869
vt 0.214474 0.795688
vt 0.218130 0.960754
vt 0.189872 0.796114
vt 0.191515 0.961241
vt 0.165301 0.796215
vt 0.164905 0.961358
vt 0.137926 0.983880
vt 0.110995 0.983244
vt 0.084080 0.982185
vt 0.057320 0.980677
vt 0.031179 0.979018
vt 0.006514 0.979213
vt 0.323208 0.979974
vt 0.298543 0.979661
vt 0.272394 0.981195
vt 0.245629 0.982574
vt 0.218709 0.983504
vt 0.191774 0.984009
vt 0.164850 0.984130
vn 0.865574 -0.032220 -0.499743
vn 0.499743 -0.032220 -0.865574
vn 0.499692 -0.035236 -0.865486
vn 0.865486 -0.035236 -0.499692
vn 0.000000 -0.032220 -0.999481
vn -0.000000 -0.035236 -0.999379
vn -0.499743 -0.032220 -0.865574
vn -0.499692 -0.035236 -0.865486
vn -0.865574 -0.032220 -0.499743
vn -0.865486 -0.035236 -0.499692
vn -0.999481 -0.032220 0.000000
vn -0.999379 -0.035236 0.000000
vn -0.865574 -0.032220 0.499743
vn -0.865486 -0.035236 0.499692
vn -0.499743 -0.032220 0.865574
vn -0.499692 -0.035236 0.865486
vn 0.000000 -0.032220 0.999481
vn 0.000000 -0.035236 0.999379
vn 0.499743 -0.032220 0.865574
vn 0.499692 -0.035236 0.865486
vn 0.865574 -0.032220 0.499743
vn 0.865486 -0.035236 0.499692
vn 0.999481 -0.032220 -0.000000
vn 0.999379 -0.035236 -0.000000
vn 0.000000 -1.000000 0.000000
vn 0.548643 0.773728 -0.316758
vn 0.316759 0.773729 -0.548642
vn 0.000000 1.000000 0.000000
vn 0.000000 0.773729 -0.633517
vn -0.316758 0.773728 -0.548643
vn -0.548642 0.773728 -0.316759
vn -0.633517 0.773729 -0.000000
vn -0.548643 0.773728 0.316758
vn -0.316759 0.773729 0.548642
vn -0.000000 0.773729 0.633517
vn 0.316758 0.773728 0.548643
vn 0.548642 0.773728 0.316759
vn 0.633517 0.773729 0.000000
vn -0.499179 -0.057259 0.864605
vn 0.000000 -0.057259 0.998359
vn -0.000000 0.029849 0.999555
vn -0.499776 0.029849 0.865640
vn -0.864605 -0.057259 0.499179
vn -0.865640 0.029849 0.499776
vn -0.998359 -0.057259 0.000000
vn -0.999554 0.029849 -0.000000
vn -0.864605 -0.057259 -0.499179
vn -0.865640 0.029849 -0.499776
vn -0.499179 -0.057259 -0.864605
vn -0.499776 0.029849 -0.865640
vn -0.000000 -0.057259 -0.998359
vn 0.000000 0.029849 -0.999555
vn 0.499179 -0.057259 -0.864605
vn 0.499776 0.029849 -0.865640
vn 0.864605 -0.057259 -0.499179
vn 0.865640 0.029849 -0.499776
vn 0.998359 -0.057259 -0.000000
vn 0.999554 0.029849 0.000000
vn 0.864605 -0.057259 0.499179
vn 0.865640 0.029849 0.499776
vn 0.499179 -0.057259 0.864605
vn 0.499776 0.029849 0.865640
s 1
g Torch:pCylinder1
usemtl Torch:lambert3SG
f 1/1/1 2/2/2 46/3/3 47/4/4
f 2/2/2 3/5/5 45/6/6 46/3/3
f 3/5/5 4/7/7 44/8/8 45/6/6
f 4/9/7 5/10/9 43/11/10 44/12/8
f 5/10/9 6/13/11 42/14/12 43/11/10
f 6/13/11 7/15/13 41/16/14 42/14/12
f 7/15/13 8/17/15 40/18/16 41/16/14
f 8/17/15 9/19/17 39/20/18 40/18/16
f 9/19/17 10/21/19 50/22/20 39/20/18
f 10/21/19 11/23/21 49/24/22 50/22/20
f 11/23/21 12/25/23 48/26/24 49/24/22
f 12/25/23 1/1/1 47/4/4 48/26/24
f 2/27/2 1/28/1 25/29/25
f 3/30/5 2/27/2 25/29/25
f 4/31/7 3/30/5 25/29/25
f 5/32/9 4/31/7 25/29/25
f 6/33/11 5/32/9 25/29/25
f 7/34/13 6/33/11 25/29/25
f 8/35/15 7/34/13 25/29/25
f 9/36/17 8/35/15 25/29/25
f 10/37/19 9/36/17 25/29/25
f 11/38/21 10/37/19 25/29/25
f 12/39/23 11/38/21 25/29/25
f 1/28/1 12/39/23 25/29/25
f 13/40/26 14/41/27 26/42/28
f 14/41/27 15/43/29 26/42/28
f 15/43/29 16/44/30 26/42/28
f 16/44/30 17/45/31 26/42/28
f 17/45/31 18/46/32 26/42/28
f 18/46/32 19/47/33 26/42/28
f 19/47/33 20/48/34 26/42/28
f 20/48/34 21/49/35 26/42/28
f 21/49/35 22/50/36 26/42/28
f 22/50/36 23/51/37 26/42/28
f 23/51/37 24/52/38 26/42/28
f 24/52/38 13/40/26 26/42/28
f 28/53/39 27/54/40 51/55/41 52/56/42
f 29/57/43 28/53/39 52/56/42 53/58/44
f 30/59/45 29/57/43 53/58/44 54/60/46
f 31/61/47 30/59/45 54/60/46 55/62/48
f 32/63/49 31/61/47 55/62/48 56/64/50
f 33/65/51 32/66/49 56/67/50 57/68/52
f 34/69/53 33/65/51 57/68/52 58/70/54
f 35/71/55 34/69/53 58/70/54 59/72/56
f 36/73/57 35/71/55 59/72/56 60/74/58
f 37/75/59 36/73/57 60/74/58 61/76/60
f 38/77/61 37/75/59 61/76/60 62/78/62
f 27/54/40 38/77/61 62/78/62 51/55/41
f 40/18/16 39/20/18 27/54/40 28/53/39
f 41/16/14 40/18/16 28/53/39 29/57/43
f 42/14/12 41/16/14 29/57/43 30/59/45
f 43/11/10 42/14/12 30/59/45 31/61/47
f 44/12/8 43/11/10 31/61/47 32/63/49
f 45/6/6 44/8/8 32/66/49 33/65/51
f 46/3/3 45/6/6 33/65/51 34/69/53
f 47/4/4 46/3/3 34/69/53 35/71/55
f 48/26/24 47/4/4 35/71/55 36/73/57
f 49/24/22 48/26/24 36/73/57 37/75/59
f 50/22/20 49/24/22 37/75/59 38/77/61
f 39/20/18 50/22/20 38/77/61 27/54/40
f 52/56/42 51/55/41 21/79/35 20/80/34
f 53/58/44 52/56/42 20/80/34 19/81/33
f 54/60/46 53/58/44 19/81/33 18/82/32
f 55/62/48 54/60/46 18/82/32 17/83/31
f 56/64/50 55/62/48 17/83/31 16/84/30
f 57/68/52 56/67/50 16/85/30 15/86/29
f 58/70/54 57/68/52 15/86/29 14/87/27
f 59/72/56 58/70/54 14/87/27 13/88/26
f 60/74/58 59/72/56 13/88/26 24/89/38
f 61/76/60 60/74/58 24/89/38 23/90/37
f 62/78/62 61/76/60 23/90/37 22/91/36
f 51/55/41 62/78/62 22/91/36 21/79/35
