# This file uses centimeters as units for non-parametric coordinates.

mtllib Torch_Holder.mtl
g default
v 0.000000 2.970482 1.026148
v -0.111183 2.978192 0.997372
v -0.192574 2.999258 0.918754
v -0.222366 3.028034 0.811359
v -0.192574 3.056810 0.703965
v -0.111183 3.077876 0.625347
v 0.000000 3.085586 0.596571
v 0.111183 3.077876 0.625347
v 0.192574 3.056810 0.703965
v 0.222366 3.028034 0.811359
v 0.192574 2.999258 0.918754
v 0.111183 2.978192 0.997372
v 0.000000 3.251156 1.106993
v -0.113906 3.259056 1.077512
v -0.197291 3.280637 0.996968
v -0.227812 3.310118 0.886944
v -0.197291 3.339599 0.776919
v -0.113906 3.361181 0.696375
v 0.000000 3.369080 0.666894
v 0.113906 3.361181 0.696375
v 0.197291 3.339599 0.776919
v 0.227812 3.310118 0.886944
v 0.197291 3.280637 0.996968
v 0.113906 3.259056 1.077512
v 0.000000 2.947558 1.105733
v -0.152586 2.958140 1.066241
v 0.000000 3.228233 1.186579
v -0.155310 3.239003 1.146382
v -0.264287 2.987050 0.958347
v -0.269004 3.268430 1.036562
v -0.305172 3.026543 0.810960
v -0.310619 3.308627 0.886544
v -0.264287 3.066035 0.663573
v -0.269004 3.348824 0.736526
v -0.152586 3.094945 0.555678
v -0.155309 3.378250 0.626706
v 0.000000 3.105527 0.516186
v 0.000000 3.389021 0.586509
v 0.152586 3.094945 0.555678
v 0.155309 3.378250 0.626706
v 0.264287 3.066035 0.663573
v 0.269004 3.348824 0.736527
v 0.305172 3.026543 0.810959
v 0.310619 3.308627 0.886544
v 0.264287 2.987050 0.958347
v 0.269004 3.268430 1.036561
v 0.152586 2.958140 1.066241
v 0.155309 3.239003 1.146382
v 0.106437 3.302467 -0.195339
v 0.061451 3.347452 -0.195339
v 0.000000 3.363918 -0.195339
v -0.061451 3.347452 -0.195339
v -0.106437 3.302467 -0.195339
v -0.122903 3.241015 -0.195339
v -0.106437 3.179564 -0.195339
v -0.061451 3.134578 -0.195339
v 0.000000 3.118112 -0.195339
v 0.061451 3.134578 -0.195339
v 0.106437 3.179564 -0.195339
v 0.122903 3.241015 -0.195339
v 0.106437 3.302467 0.599707
v 0.061451 3.347452 0.599707
v 0.000000 3.363918 0.599707
v -0.061451 3.347452 0.599707
v -0.106437 3.302467 0.599707
v -0.122903 3.241015 0.599707
v -0.106437 3.179564 0.599707
v -0.061451 3.134578 0.599707
v 0.000000 3.118112 0.599707
v 0.061451 3.134578 0.599707
v 0.106437 3.179564 0.599707
v 0.122903 3.241015 0.599707
v -0.204649 2.110504 0.565508
v -0.177232 2.136987 0.466670
v -0.102324 2.156375 0.394315
v 0.000000 2.163471 0.367832
v 0.102324 2.156375 0.394315
v 0.177232 2.136987 0.466670
v 0.204649 2.110504 0.565508
v 0.177232 2.084020 0.664346
v 0.102324 2.064633 0.736701
v 0.000000 2.057537 0.763184
v -0.102324 2.064633 0.736701
v -0.177232 2.084020 0.664346
v -0.198971 1.816387 0.486699
v -0.172314 1.842136 0.390604
v -0.099485 1.860985 0.320257
v 0.000000 1.867884 0.294508
v 0.099485 1.860985 0.320257
v 0.172314 1.842136 0.390604
v 0.198971 1.816387 0.486699
v 0.172314 1.790638 0.582795
v 0.099485 1.771789 0.653142
v 0.000000 1.764889 0.678890
v -0.099485 1.771789 0.653142
v -0.172314 1.790638 0.582795
v -0.281777 1.814895 0.486301
v -0.244027 1.851360 0.350211
v -0.287456 2.109012 0.565108
v -0.248945 2.146211 0.426278
v -0.140889 1.878054 0.250589
v -0.143726 2.173444 0.324646
v 0.000000 1.887825 0.214123
v 0.000000 2.183411 0.287446
v 0.140887 1.878054 0.250588
v 0.143728 2.173444 0.324646
v 0.244026 1.851360 0.350211
v 0.248944 2.146212 0.426275
v 0.281777 1.814895 0.486301
v 0.287457 2.109012 0.565108
v 0.244026 1.778430 0.622389
v 0.248943 2.071812 0.703940
v 0.140889 1.751737 0.722011
v 0.143729 2.044581 0.805570
v 0.000000 1.741966 0.758477
v 0.000000 2.034613 0.842770
v -0.140890 1.751737 0.722011
v -0.143727 2.044580 0.805571
v -0.244026 1.778430 0.622388
v -0.248945 2.071813 0.703939
v 0.106437 2.090875 -0.195339
v 0.061451 2.135860 -0.195339
v 0.000000 2.152327 -0.195339
v -0.061451 2.135860 -0.195339
v -0.106437 2.090875 -0.195339
v -0.122903 2.029424 -0.195339
v -0.106437 1.967972 -0.195339
v -0.061451 1.922986 -0.195339
v 0.000000 1.906520 -0.195339
v 0.061451 1.922986 -0.195339
v 0.106437 1.967972 -0.195339
v 0.122903 2.029424 -0.195339
v 0.106437 2.090875 0.301584
v 0.061451 2.135860 0.301584
v 0.000000 2.152326 0.301584
v -0.061451 2.135860 0.301584
v -0.106437 2.090875 0.301584
v -0.122903 2.029423 0.301584
v -0.106437 1.967972 0.301584
v -0.061451 1.922986 0.301584
v 0.000000 1.906520 0.301584
v 0.061451 1.922986 0.301584
v 0.106437 1.967972 0.301584
v 0.122903 2.029423 0.301584
v -0.617894 4.000000 -0.707643
v 0.617894 4.000000 -0.707643
v -0.433333 1.000000 -0.707643
v 0.433333 1.000000 -0.707643
v -0.240650 1.204901 -0.195339
v -0.433333 1.000000 -0.400240
v 0.240650 1.204901 -0.195339
v 0.433333 1.000000 -0.400240
v -0.400000 3.795099 -0.195339
v -0.617894 4.000000 -0.400240
v 0.400000 3.795099 -0.195339
v 0.617894 4.000000 -0.400240
vt 0.625202 0.116396
vt 0.659169 0.115013
vt 0.662020 0.177780
vt 0.627474 0.179187
vt 0.591219 0.117471
vt 0.592922 0.180280
vt 0.557228 0.118239
vt 0.558362 0.181061
vt 0.523231 0.118699
vt 0.523796 0.181528
vt 0.489230 0.118851
vt 0.489229 0.181683
vt 0.455229 0.118696
vt 0.454662 0.181526
vt 0.421230 0.118236
vt 0.420096 0.181058
vt 0.387237 0.117469
vt 0.385536 0.180278
vt 0.353253 0.116397
vt 0.350984 0.179188
vt 0.319285 0.115016
vt 0.316439 0.177783
vt 0.285341 0.113319
vt 0.281900 0.176057
vt 0.693114 0.113313
vt 0.696559 0.176051
vt 0.770942 0.221180
vt 0.747025 0.227588
vt 0.738118 0.212158
vt 0.770943 0.203364
vt 0.901790 0.689392
vt 0.883852 0.707328
vt 0.868423 0.698419
vt 0.892883 0.673963
vt 0.794859 0.227590
vt 0.803768 0.212161
vt 0.877285 0.731831
vt 0.859469 0.731830
vt 0.812367 0.245100
vt 0.827796 0.236192
vt 0.883849 0.756334
vt 0.868419 0.765241
vt 0.818774 0.269017
vt 0.836590 0.269018
vt 0.901785 0.774272
vt 0.892876 0.789701
vt 0.812364 0.292933
vt 0.827793 0.301842
vt 0.926287 0.780839
vt 0.926287 0.798655
vt 0.794854 0.310441
vt 0.803762 0.325871
vt 0.950790 0.774275
vt 0.959697 0.789705
vt 0.770937 0.316849
vt 0.770936 0.334665
vt 0.968729 0.756340
vt 0.984158 0.765250
vt 0.747021 0.310439
vt 0.738112 0.325867
vt 0.975296 0.731837
vt 0.993111 0.731839
vt 0.729513 0.292929
vt 0.714083 0.301836
vt 0.968732 0.707334
vt 0.984162 0.698427
vt 0.723106 0.269012
vt 0.705290 0.269011
vt 0.950796 0.689395
vt 0.959705 0.673967
vt 0.729515 0.245095
vt 0.714087 0.236186
vt 0.926293 0.682828
vt 0.926294 0.665012
vt 0.695336 0.028974
vt 0.720670 0.027932
vt 0.722967 0.090722
vt 0.698216 0.091741
vt 0.670006 0.030255
vt 0.673482 0.092990
vt 0.948747 0.028914
vt 0.974078 0.030178
vt 0.970640 0.092916
vt 0.945905 0.091682
vt 0.923413 0.027887
vt 0.921153 0.090678
vt 0.898076 0.027092
vt 0.896388 0.089901
vt 0.872736 0.026526
vt 0.871617 0.089349
vt 0.847391 0.026190
vt 0.846839 0.089019
vt 0.822060 0.088913
vt 0.822045 0.026081
vt 0.796699 0.026200
vt 0.797280 0.089029
vt 0.771353 0.026547
vt 0.772502 0.089369
vt 0.746009 0.027124
vt 0.747730 0.089933
vt 0.941317 0.508003
vt 0.927634 0.508003
vt 0.927634 0.336976
vt 0.941317 0.336976
vt 0.913952 0.508003
vt 0.913952 0.336976
vt 0.900270 0.508003
vt 0.900270 0.336976
vt 0.886587 0.508003
vt 0.886587 0.336976
vt 0.872904 0.508003
vt 0.872904 0.336976
vt 0.859220 0.508003
vt 0.859220 0.336976
vt 0.845535 0.508003
vt 0.845535 0.336976
vt 0.831849 0.508003
vt 0.831849 0.336976
vt 0.996055 0.508003
vt 0.982369 0.508003
vt 0.982369 0.336976
vt 0.996055 0.336976
vt 0.968685 0.508003
vt 0.968685 0.336976
vt 0.955000 0.508003
vt 0.955000 0.336976
vt 0.488722 0.089742
vt 0.457327 0.089498
vt 0.457541 0.023986
vt 0.489529 0.024235
vt 0.520112 0.090271
vt 0.521515 0.024773
vt 0.551495 0.091085
vt 0.553494 0.025603
vt 0.582868 0.092185
vt 0.585468 0.026724
vt 0.614225 0.093574
vt 0.617434 0.028141
vt 0.645561 0.095258
vt 0.649392 0.029857
vt 0.300402 0.092545
vt 0.269055 0.094020
vt 0.265656 0.028596
vt 0.297625 0.027092
vt 0.331768 0.091363
vt 0.329599 0.025887
vt 0.363147 0.090470
vt 0.361579 0.024976
vt 0.394537 0.089862
vt 0.393563 0.024357
vt 0.425931 0.089538
vt 0.425552 0.024027
vt 0.870294 0.113839
vt 0.870894 0.179349
vt 0.848121 0.179452
vt 0.848123 0.113940
vt 0.892462 0.113535
vt 0.893666 0.179036
vt 0.914625 0.113026
vt 0.916436 0.178514
vt 0.936779 0.112312
vt 0.939202 0.177779
vt 0.958924 0.111389
vt 0.961964 0.176830
vt 0.981054 0.110255
vt 0.984719 0.175665
vt 0.737328 0.111371
vt 0.734276 0.176812
vt 0.711522 0.175644
vt 0.715198 0.110235
vt 0.759472 0.112299
vt 0.757037 0.177766
vt 0.781624 0.113018
vt 0.779804 0.178506
vt 0.803785 0.113531
vt 0.802575 0.179031
vt 0.825952 0.113837
vt 0.825347 0.179346
vt 0.804619 0.420372
vt 0.810352 0.398971
vt 0.828168 0.398970
vt 0.820049 0.429280
vt 0.867909 0.269907
vt 0.873807 0.291919
vt 0.858378 0.300827
vt 0.850093 0.269908
vt 0.788952 0.436038
vt 0.797860 0.451467
vt 0.889921 0.308032
vt 0.881014 0.323460
vt 0.767551 0.441772
vt 0.767551 0.459588
vt 0.911932 0.313930
vt 0.911931 0.331746
vt 0.746150 0.436039
vt 0.737242 0.451468
vt 0.933944 0.308033
vt 0.942851 0.323463
vt 0.730484 0.420372
vt 0.715056 0.429280
vt 0.950057 0.291920
vt 0.965486 0.300828
vt 0.724749 0.398971
vt 0.706932 0.398971
vt 0.955954 0.269908
vt 0.973770 0.269908
vt 0.730484 0.377570
vt 0.715055 0.368662
vt 0.950056 0.247896
vt 0.965485 0.238988
vt 0.746150 0.361903
vt 0.737242 0.346474
vt 0.933943 0.231781
vt 0.942852 0.216353
vt 0.767550 0.356169
vt 0.767551 0.338352
vt 0.911932 0.225884
vt 0.911932 0.208067
vt 0.788951 0.361904
vt 0.797859 0.346476
vt 0.889920 0.231782
vt 0.881012 0.216353
vt 0.804618 0.377570
vt 0.820047 0.368662
vt 0.873806 0.247895
vt 0.858377 0.238988
vt 0.886180 0.643949
vt 0.872498 0.643948
vt 0.872496 0.537052
vt 0.886181 0.537053
vt 0.858816 0.643949
vt 0.858810 0.537053
vt 0.845131 0.643949
vt 0.845127 0.537054
vt 0.831445 0.643949
vt 0.831444 0.537054
vt 0.817758 0.643949
vt 0.817762 0.537054
vt 0.804072 0.643949
vt 0.804079 0.537053
vt 0.790387 0.643948
vt 0.790393 0.537052
vt 0.776702 0.643947
vt 0.776708 0.537052
vt 0.940926 0.643947
vt 0.927239 0.643949
vt 0.927232 0.537053
vt 0.940915 0.537052
vt 0.913551 0.643949
vt 0.913549 0.537054
vt 0.899864 0.643949
vt 0.899866 0.537054
vt 0.482952 0.318449
vt 0.435452 0.267365
vt 0.628391 0.268020
vt 0.580545 0.318781
vt 0.446852 0.869649
vt 0.393736 0.919282
vt 0.665679 0.920206
vt 0.612902 0.870212
vt 0.662373 0.986935
vt 0.396589 0.986032
vt 0.438950 0.200637
vt 0.625346 0.201270
vt 0.694852 0.267644
vt 0.731741 0.913031
vt 0.368994 0.266539
vt 0.327725 0.911660
vn -0.488187 -0.427559 0.760833
vn -0.000000 -0.461414 0.887185
vn 0.000000 -0.076016 0.997107
vn -0.491401 -0.041938 0.869923
vn -0.845568 -0.335061 0.415630
vn -0.851135 0.051169 0.522447
vn -0.976378 -0.208708 -0.055923
vn -0.982805 0.178353 0.047790
vn -0.845568 -0.082355 -0.527477
vn -0.851134 0.305538 -0.426869
vn -0.488188 0.010140 -0.872679
vn -0.491402 0.398643 -0.774343
vn -0.000000 0.043996 -0.999032
vn -0.000000 0.432722 -0.901527
vn 0.488189 0.010141 -0.872679
vn 0.491403 0.398643 -0.774343
vn 0.845568 -0.082354 -0.527478
vn 0.851134 0.305539 -0.426869
vn 0.976378 -0.208708 -0.055923
vn 0.982805 0.178352 0.047790
vn 0.845568 -0.335060 0.415631
vn 0.851135 0.051169 0.522447
vn 0.488189 -0.427557 0.760833
vn 0.491402 -0.041937 0.869923
vn 0.469664 -0.120789 -0.874543
vn -0.000000 -0.088214 -0.996102
vn 0.000000 0.611736 -0.791062
vn 0.461217 0.579753 -0.671688
vn 0.813481 -0.209774 -0.542442
vn 0.798853 0.492364 -0.345560
vn 0.939327 -0.331336 -0.088780
vn 0.922436 0.372993 0.099942
vn 0.813482 -0.452891 0.364880
vn 0.798853 0.253620 0.545445
vn 0.469664 -0.541878 0.696982
vn 0.461218 0.166235 0.871576
vn -0.000000 -0.574449 0.818540
vn -0.000000 0.134247 0.990948
vn -0.469664 -0.541878 0.696982
vn -0.461218 0.166235 0.871576
vn -0.813482 -0.452891 0.364880
vn -0.798854 0.253619 0.545445
vn -0.939327 -0.331335 -0.088780
vn -0.922437 0.372991 0.099943
vn -0.813481 -0.209774 -0.542441
vn -0.798854 0.492363 -0.345560
vn -0.469664 -0.120789 -0.874543
vn -0.461217 0.579752 -0.671689
vn 0.866023 0.500004 0.000000
vn 0.499997 0.866027 0.000000
vn 0.499997 0.866027 0.000000
vn 0.866023 0.500004 0.000000
vn 0.000000 1.000000 0.000000
vn 0.000000 1.000000 0.000000
vn -0.499997 0.866027 0.000000
vn -0.499997 0.866027 0.000000
vn -0.866023 0.500004 0.000000
vn -0.866023 0.500004 0.000000
vn -1.000000 -0.000000 0.000000
vn -1.000000 -0.000000 0.000000
vn -0.866023 -0.500004 0.000000
vn -0.866023 -0.500004 0.000000
vn -0.500003 -0.866024 0.000000
vn -0.500003 -0.866024 0.000000
vn 0.000000 -1.000000 0.000000
vn 0.000000 -1.000000 0.000000
vn 0.500003 -0.866024 0.000000
vn 0.500003 -0.866024 0.000000
vn 0.866023 -0.500004 0.000000
vn 0.866023 -0.500004 0.000000
vn 1.000000 -0.000000 0.000000
vn 1.000000 -0.000000 0.000000
vn -0.847502 -0.072065 -0.525878
vn -0.978611 -0.198711 -0.053242
vn -0.984655 0.168563 0.045168
vn -0.852736 0.295988 -0.430386
vn -0.489308 0.020640 -0.871867
vn -0.492327 0.389271 -0.778512
vn -0.000002 0.054573 -0.998510
vn -0.000002 0.423411 -0.905938
vn 0.489303 0.020637 -0.871870
vn 0.492327 0.389270 -0.778514
vn 0.847501 -0.072069 -0.525878
vn 0.852736 0.295986 -0.430388
vn 0.978611 -0.198709 -0.053242
vn 0.984656 0.168562 0.045167
vn 0.847502 -0.325351 0.419389
vn 0.852736 0.041142 0.520719
vn 0.489305 -0.418061 0.765380
vn 0.492328 -0.052139 0.868847
vn 0.000002 -0.451993 0.892022
vn 0.000002 -0.086284 0.996271
vn -0.489308 -0.418059 0.765378
vn -0.492328 -0.052140 0.868847
vn -0.847502 -0.325352 0.419388
vn -0.852737 0.041142 0.520718
vn 0.815973 -0.445552 0.368337
vn 0.801395 0.246390 0.545030
vn 0.925373 0.366142 0.098105
vn 0.942205 -0.323621 -0.086715
vn 0.471102 -0.534811 0.701456
vn 0.462685 0.158725 0.872198
vn -0.000000 -0.567484 0.823384
vn 0.000000 0.126638 0.991949
vn -0.471102 -0.534809 0.701457
vn -0.462686 0.158727 0.872197
vn -0.815973 -0.445551 0.368338
vn -0.801394 0.246393 0.545030
vn -0.942205 -0.323621 -0.086715
vn -0.925372 0.366145 0.098108
vn -0.815973 -0.201690 -0.541764
vn -0.801396 0.485894 -0.348815
vn -0.471101 -0.112431 -0.874885
vn -0.462683 0.573559 -0.675984
vn 0.000000 -0.079766 -0.996814
vn -0.000001 0.605648 -0.795733
vn 0.471101 -0.112432 -0.874885
vn 0.462684 0.573561 -0.675982
vn 0.815974 -0.201689 -0.541764
vn 0.801396 0.485895 -0.348813
vn 0.866022 0.500005 0.000000
vn 0.500002 0.866025 0.000000
vn 0.500002 0.866025 0.000000
vn 0.866022 0.500005 0.000000
vn 0.000000 1.000000 0.000001
vn 0.000000 1.000000 0.000001
vn -0.500002 0.866025 0.000000
vn -0.500002 0.866025 0.000000
vn -0.866022 0.500005 0.000000
vn -0.866022 0.500005 0.000000
vn -1.000000 0.000000 0.000000
vn -1.000000 -0.000000 -0.000000
vn -0.866024 -0.500002 -0.000000
vn -0.866024 -0.500002 -0.000000
vn -0.500004 -0.866023 0.000000
vn -0.500004 -0.866023 0.000000
vn 0.000000 -1.000000 0.000000
vn 0.000000 -1.000000 0.000000
vn 0.500004 -0.866023 0.000000
vn 0.500004 -0.866023 0.000000
vn 0.866024 -0.500002 -0.000000
vn 0.866024 -0.500002 -0.000000
vn 1.000000 0.000000 0.000000
vn 1.000000 -0.000000 -0.000000
vn -0.278526 -0.084296 0.956722
vn -0.899919 -0.303303 0.313295
vn 0.899919 -0.303303 0.313295
vn 0.278526 -0.084296 0.956722
vn -0.285751 0.086483 0.954394
vn -0.895138 0.302207 0.327716
vn 0.895138 0.302207 0.327716
vn 0.285751 0.086483 0.954394
vn 0.943738 0.330694 0.000000
vn -0.943738 0.330694 0.000000
vn -0.943738 -0.330694 0.000000
vn 0.943738 -0.330694 0.000000
s 1
g Torch_Holder:pCylinder11
usemtl Torch_Holder:lambert3SG
f 26/1/1 25/2/2 27/3/3 28/4/4
f 29/5/5 26/1/1 28/4/4 30/6/6
f 31/7/7 29/5/5 30/6/6 32/8/8
f 33/9/9 31/7/7 32/8/8 34/10/10
f 35/11/11 33/9/9 34/10/10 36/12/12
f 37/13/13 35/11/11 36/12/12 38/14/14
f 39/15/15 37/13/13 38/14/14 40/16/16
f 41/17/17 39/15/15 40/16/16 42/18/18
f 43/19/19 41/17/17 42/18/18 44/20/20
f 45/21/21 43/19/19 44/20/20 46/22/22
f 47/23/23 45/21/21 46/22/22 48/24/24
f 25/2/2 47/25/23 48/26/24 27/3/3
f 2/27/25 1/28/26 25/29/2 26/30/1
f 13/31/27 14/32/28 28/33/4 27/34/3
f 3/35/29 2/27/25 26/30/1 29/36/5
f 14/32/28 15/37/30 30/38/6 28/33/4
f 4/39/31 3/35/29 29/36/5 31/40/7
f 15/37/30 16/41/32 32/42/8 30/38/6
f 5/43/33 4/39/31 31/40/7 33/44/9
f 16/41/32 17/45/34 34/46/10 32/42/8
f 6/47/35 5/43/33 33/44/9 35/48/11
f 17/45/34 18/49/36 36/50/12 34/46/10
f 7/51/37 6/47/35 35/48/11 37/52/13
f 18/49/36 19/53/38 38/54/14 36/50/12
f 8/55/39 7/51/37 37/52/13 39/56/15
f 19/53/38 20/57/40 40/58/16 38/54/14
f 9/59/41 8/55/39 39/56/15 41/60/17
f 20/57/40 21/61/42 42/62/18 40/58/16
f 10/63/43 9/59/41 41/60/17 43/64/19
f 21/61/42 22/65/44 44/66/20 42/62/18
f 11/67/45 10/63/43 43/64/19 45/68/21
f 22/65/44 23/69/46 46/70/22 44/66/20
f 12/71/47 11/67/45 45/68/21 47/72/23
f 23/69/46 24/73/48 48/74/24 46/70/22
f 1/28/26 12/71/47 47/72/23 25/29/2
f 24/73/48 13/31/27 27/34/3 48/74/24
f 19/75/38 18/76/36 6/77/35 7/78/37
f 20/79/40 19/75/38 7/78/37 8/80/39
f 21/81/42 20/82/40 8/83/39 9/84/41
f 22/85/44 21/81/42 9/84/41 10/86/43
f 23/87/46 22/85/44 10/86/43 11/88/45
f 24/89/48 23/87/46 11/88/45 12/90/47
f 13/91/27 24/89/48 12/90/47 1/92/26
f 1/92/26 2/93/25 14/94/28 13/91/27
f 15/95/30 14/94/28 2/93/25 3/96/29
f 16/97/32 15/95/30 3/96/29 4/98/31
f 17/99/34 16/97/32 4/98/31 5/100/33
f 18/76/36 17/99/34 5/100/33 6/77/35
s 2
f 49/101/49 50/102/50 62/103/51 61/104/52
f 50/102/50 51/105/53 63/106/54 62/103/51
f 51/105/53 52/107/55 64/108/56 63/106/54
f 52/107/55 53/109/57 65/110/58 64/108/56
f 53/109/57 54/111/59 66/112/60 65/110/58
f 54/111/59 55/113/61 67/114/62 66/112/60
f 55/113/61 56/115/63 68/116/64 67/114/62
f 56/115/63 57/117/65 69/118/66 68/116/64
f 57/119/65 58/120/67 70/121/68 69/122/66
f 58/120/67 59/123/69 71/124/70 70/121/68
f 59/123/69 60/125/71 72/126/72 71/124/70
f 60/125/71 49/101/49 61/104/52 72/126/72
s 3
f 98/127/73 97/128/74 99/129/75 100/130/76
f 101/131/77 98/127/73 100/130/76 102/132/78
f 103/133/79 101/131/77 102/132/78 104/134/80
f 105/135/81 103/133/79 104/134/80 106/136/82
f 107/137/83 105/135/81 106/136/82 108/138/84
f 109/139/85 107/137/83 108/138/84 110/140/86
f 111/141/87 109/142/85 110/143/86 112/144/88
f 113/145/89 111/141/87 112/144/88 114/146/90
f 115/147/91 113/145/89 114/146/90 116/148/92
f 117/149/93 115/147/91 116/148/92 118/150/94
f 119/151/95 117/149/93 118/150/94 120/152/96
f 97/128/74 119/151/95 120/152/96 99/129/75
f 86/153/97 74/154/98 73/155/99 85/156/100
f 87/157/101 75/158/102 74/154/98 86/153/97
f 88/159/103 76/160/104 75/158/102 87/157/101
f 89/161/105 77/162/106 76/160/104 88/159/103
f 90/163/107 78/164/108 77/162/106 89/161/105
f 91/165/109 79/166/110 78/164/108 90/163/107
f 92/167/111 80/168/112 79/169/110 91/170/109
f 93/171/113 81/172/114 80/168/112 92/167/111
f 94/173/115 82/174/116 81/172/114 93/171/113
f 95/175/117 83/176/118 82/174/116 94/173/115
f 96/177/119 84/178/120 83/176/118 95/175/117
f 85/156/100 73/155/99 84/178/120 96/177/119
f 86/179/97 85/180/100 97/181/74 98/182/73
f 73/183/99 74/184/98 100/185/76 99/186/75
f 87/187/101 86/179/97 98/182/73 101/188/77
f 74/184/98 75/189/102 102/190/78 100/185/76
f 88/191/103 87/187/101 101/188/77 103/192/79
f 75/189/102 76/193/104 104/194/80 102/190/78
f 89/195/105 88/191/103 103/192/79 105/196/81
f 76/193/104 77/197/106 106/198/82 104/194/80
f 90/199/107 89/195/105 105/196/81 107/200/83
f 77/197/106 78/201/108 108/202/84 106/198/82
f 91/203/109 90/199/107 107/200/83 109/204/85
f 78/201/108 79/205/110 110/206/86 108/202/84
f 92/207/111 91/203/109 109/204/85 111/208/87
f 79/205/110 80/209/112 112/210/88 110/206/86
f 93/211/113 92/207/111 111/208/87 113/212/89
f 80/209/112 81/213/114 114/214/90 112/210/88
f 94/215/115 93/211/113 113/212/89 115/216/91
f 81/213/114 82/217/116 116/218/92 114/214/90
f 95/219/117 94/215/115 115/216/91 117/220/93
f 82/217/116 83/221/118 118/222/94 116/218/92
f 96/223/119 95/219/117 117/220/93 119/224/95
f 83/221/118 84/225/120 120/226/96 118/222/94
f 85/180/100 96/223/119 119/224/95 97/181/74
f 84/225/120 73/183/99 99/186/75 120/226/96
s 5
f 121/227/121 122/228/122 134/229/123 133/230/124
f 122/228/122 123/231/125 135/232/126 134/229/123
f 123/231/125 124/233/127 136/234/128 135/232/126
f 124/233/127 125/235/129 137/236/130 136/234/128
f 125/235/129 126/237/131 138/238/132 137/236/130
f 126/237/131 127/239/133 139/240/134 138/238/132
f 127/239/133 128/241/135 140/242/136 139/240/134
f 128/241/135 129/243/137 141/244/138 140/242/136
f 129/245/137 130/246/139 142/247/140 141/248/138
f 130/246/139 131/249/141 143/250/142 142/247/140
f 131/249/141 132/251/143 144/252/144 143/250/142
f 132/251/143 121/227/121 133/230/124 144/252/144
s 6
f 149/253/145 150/254/146 152/255/147 151/256/148
f 150/254/146 149/253/145 153/257/149 154/258/150
f 151/256/148 152/255/147 156/259/151 155/260/152
f 154/258/150 153/257/149 155/260/152 156/259/151
f 149/253/145 151/256/148 155/260/152 153/257/149
f 154/258/150 156/259/151 146/261/153 145/262/154
f 147/263/155 148/264/156 152/255/147 150/254/146
f 152/255/147 148/265/156 146/266/153 156/259/151
f 147/267/155 150/254/146 154/258/150 145/268/154
