# This file uses centimeters as units for non-parametric coordinates.

mtllib Wall&Bricks.mtl
g default
v -18.000000 0.000000 2.000000
v -18.000000 55.000008 2.000000
v -18.000000 55.000008 -2.000000
v -18.000000 0.000000 -2.000000
v 18.000000 0.000000 2.000000
v 18.000000 55.000008 2.000000
v 18.000000 55.000008 -2.000000
v 18.000000 0.000000 -2.000000
vt 0.618504 0.109158
vt 0.682273 0.109158
vt 0.024167 0.088646
vt 0.024167 0.025290
vt 0.598217 0.025290
vt 0.682273 0.985988
vt 0.618504 0.985988
vt 0.618504 0.109158
vt 0.682273 0.109158
vt 0.598217 0.088646
vt 0.598217 0.025290
vt 0.598217 0.088646
vt 0.682273 0.985988
vt 0.618504 0.985988
vt 0.024219 0.985988
vt 0.024219 0.109158
vt 0.598144 0.109158
vt 0.598144 0.985988
vt 0.598144 0.109158
vt 0.598144 0.985988
vt 0.024219 0.985988
vt 0.024219 0.109158
vt 0.024167 0.088646
vt 0.024167 0.025290
vn -0.110144 0.072094 0.991298
vn -0.110144 -0.072094 0.991298
vn 0.110144 -0.072094 0.991298
vn 0.110144 0.072094 0.991298
vn -0.110144 0.072094 -0.991298
vn 0.110144 0.072094 -0.991298
vn -0.110144 -0.072094 -0.991298
vn 0.110144 -0.072094 -0.991298
s 1
g Wall
usemtl initialShadingGroup
f 2/15/1 1/16/2 5/17/3 6/18/4
f 3/3/5 2/4/1 6/5/4 7/10/6
f 4/19/7 3/20/5 7/21/6 8/22/8
f 1/11/2 4/12/7 8/23/8 5/24/3
f 4/1/7 1/2/2 2/6/1 3/7/5
f 5/8/3 8/9/8 7/13/6 6/14/4
g default
v -42.714443 0.000000 19.018566
v -36.714443 0.000000 19.018566
v -42.447777 0.750000 18.718566
v -36.981110 0.750000 18.718566
v -42.447777 0.750000 7.318566
v -36.981110 0.750000 7.318566
v -42.714443 0.000000 7.018566
v -36.714443 0.000000 7.018566
vt 0.701433 0.715826
vt 0.840106 0.715911
vt 0.829227 0.727331
vt 0.712298 0.727260
vt 0.829075 0.974906
vt 0.712146 0.974835
vt 0.839941 0.986340
vt 0.701268 0.986255
vn -0.798443 0.445769 0.404695
vn 0.798443 0.445769 0.404695
vn 0.155753 0.984969 0.074681
vn -0.155753 0.984969 0.074681
vn 0.155753 0.984969 -0.074681
vn -0.155753 0.984969 -0.074681
vn 0.798443 0.445769 -0.404695
vn -0.798443 0.445769 -0.404695
s 1
g Brick_0
usemtl Brick:initialShadingGroup
f 9/25/9 10/26/10 12/27/11 11/28/12
f 11/28/12 12/27/11 14/29/13 13/30/14
f 13/30/14 14/29/13 16/31/15 15/32/16
f 10/26/10 16/31/15 14/29/13 12/27/11
f 15/32/16 9/25/9 11/28/12 13/30/14
g default
v -32.397070 0.000000 19.018566
v -26.397070 0.000000 19.018566
v -32.130403 0.750000 18.718566
v -26.663737 0.750000 18.718566
v -32.130403 0.750000 7.318566
v -26.663737 0.750000 7.318566
v -32.397070 0.000000 7.018566
v -26.397070 0.000000 7.018566
vt 0.701433 0.413660
vt 0.840106 0.413745
vt 0.829227 0.425165
vt 0.712298 0.425094
vt 0.829075 0.672740
vt 0.712146 0.672669
vt 0.839941 0.684174
vt 0.701268 0.684089
vn -0.798443 0.445769 0.404695
vn 0.798443 0.445769 0.404695
vn 0.155753 0.984969 0.074681
vn -0.155753 0.984969 0.074681
vn 0.155753 0.984969 -0.074681
vn -0.155753 0.984969 -0.074681
vn 0.798443 0.445769 -0.404695
vn -0.798443 0.445769 -0.404695
s 1
g Brick_1
usemtl Brick:initialShadingGroup
f 17/33/17 18/34/18 20/35/19 19/36/20
f 19/36/20 20/35/19 22/37/21 21/38/22
f 21/38/22 22/37/21 24/39/23 23/40/24
f 18/34/18 24/39/23 22/37/21 20/35/19
f 23/40/24 17/33/17 19/36/20 21/38/22
g default
v -23.968048 0.000000 19.018566
v -17.968048 0.000000 19.018566
v -23.701381 0.750000 18.718566
v -18.234715 0.750000 18.718566
v -23.701381 0.750000 7.318566
v -18.234715 0.750000 7.318566
v -23.968048 0.000000 7.018566
v -17.968048 0.000000 7.018566
vt 0.852516 0.413660
vt 0.991189 0.413745
vt 0.980309 0.425165
vt 0.863381 0.425094
vt 0.980157 0.672740
vt 0.863229 0.672669
vt 0.991023 0.684174
vt 0.852351 0.684089
vn -0.798443 0.445769 0.404695
vn 0.798443 0.445769 0.404695
vn 0.155753 0.984969 0.074681
vn -0.155753 0.984969 0.074681
vn 0.155753 0.984969 -0.074681
vn -0.155753 0.984969 -0.074681
vn 0.798443 0.445769 -0.404695
vn -0.798443 0.445769 -0.404695
s 1
g Brick_2
usemtl Brick:initialShadingGroup
f 25/41/25 26/42/26 28/43/27 27/44/28
f 27/44/28 28/43/27 30/45/29 29/46/30
f 29/46/30 30/45/29 32/47/31 31/48/32
f 26/42/26 32/47/31 30/45/29 28/43/27
f 31/48/32 25/41/25 27/44/28 29/46/30
g default
v -15.252468 0.000000 19.018566
v -9.252468 0.000000 19.018566
v -14.985801 0.750000 18.718566
v -9.519135 0.750000 18.718566
v -14.985801 0.750000 7.318566
v -9.519135 0.750000 7.318566
v -15.252468 0.000000 7.018566
v -9.252468 0.000000 7.018566
vt 0.852516 0.715826
vt 0.991189 0.715910
vt 0.980309 0.727331
vt 0.863381 0.727260
vt 0.980157 0.974906
vt 0.863229 0.974835
vt 0.991023 0.986340
vt 0.852351 0.986255
vn -0.798443 0.445769 0.404695
vn 0.798443 0.445769 0.404695
vn 0.155753 0.984969 0.074681
vn -0.155753 0.984969 0.074681
vn 0.155753 0.984969 -0.074681
vn -0.155753 0.984969 -0.074681
vn 0.798443 0.445769 -0.404695
vn -0.798443 0.445769 -0.404695
s 1
g Brick_3
usemtl Brick:initialShadingGroup
f 33/49/33 34/50/34 36/51/35 35/52/36
f 35/52/36 36/51/35 38/53/37 37/54/38
f 37/54/38 38/53/37 40/55/39 39/56/40
f 34/50/34 40/55/39 38/53/37 36/51/35
f 39/56/40 33/49/33 35/52/36 37/54/38
g default
v 6.000000 -3.000000 16.519209
v 6.000000 3.000000 16.519209
v 5.700000 -2.733333 17.269209
v 5.700000 2.733333 17.269209
v -5.700000 -2.733333 17.269209
v -5.700000 2.733333 17.269209
v -6.000000 -3.000000 16.519209
v -6.000000 3.000000 16.519209
vt 0.704093 0.106269
vt 0.842766 0.106354
vt 0.831886 0.117774
vt 0.714958 0.117703
vt 0.831734 0.365349
vt 0.714806 0.365278
vt 0.842600 0.376783
vt 0.703928 0.376699
vn 0.404695 -0.798443 0.445769
vn 0.404695 0.798443 0.445769
vn 0.074681 0.155753 0.984969
vn 0.074681 -0.155753 0.984969
vn -0.074681 0.155753 0.984969
vn -0.074681 -0.155753 0.984969
vn -0.404695 0.798443 0.445769
vn -0.404695 -0.798443 0.445769
s 1
g Brick_4
usemtl Brick:initialShadingGroup
f 41/57/41 42/58/42 44/59/43 43/60/44
f 43/60/44 44/59/43 46/61/45 45/62/46
f 45/62/46 46/61/45 48/63/47 47/64/48
f 42/58/42 48/63/47 46/61/45 44/59/43
f 47/64/48 41/57/41 43/60/44 45/62/46
g default
v 6.000000 -3.000000 9.141107
v 6.000000 3.000000 9.141107
v 5.700000 -2.733333 9.891107
v 5.700000 2.733333 9.891107
v -5.700000 -2.733333 9.891107
v -5.700000 2.733333 9.891107
v -6.000000 -3.000000 9.141107
v -6.000000 3.000000 9.141107
vt 0.852864 0.106269
vt 0.991537 0.106354
vt 0.980658 0.117774
vt 0.863729 0.117703
vt 0.980506 0.365349
vt 0.863578 0.365278
vt 0.991372 0.376783
vt 0.852699 0.376699
vn 0.404695 -0.798443 0.445769
vn 0.404695 0.798443 0.445769
vn 0.074681 0.155753 0.984969
vn 0.074681 -0.155753 0.984969
vn -0.074681 0.155753 0.984969
vn -0.074681 -0.155753 0.984969
vn -0.404695 0.798443 0.445769
vn -0.404695 -0.798443 0.445769
s 1
g Brick_5
usemtl Brick:initialShadingGroup
f 49/65/49 50/66/50 52/67/51 51/68/52
f 51/68/52 52/67/51 54/69/53 53/70/54
f 53/70/54 54/69/53 56/71/55 55/72/56
f 50/66/50 56/71/55 54/69/53 52/67/51
f 55/72/56 49/65/49 51/68/52 53/70/54
